<?xml version="1.0" encoding="UTF-8" standalone="no"?>
<!-- Created with Inkscape (http://www.inkscape.org/) -->

<svg
   id="svg4136"
   version="1.1"
   inkscape:version="1.3.2 (091e20e, 2023-11-25, custom)"
   xml:space="preserve"
   width="1920"
   height="1080"
   viewBox="0 0 1920 1080"
   sodipodi:docname="home_button.svg"
   inkscape:export-filename="button.png"
   inkscape:export-xdpi="300"
   inkscape:export-ydpi="300"
   xmlns:inkscape="http://www.inkscape.org/namespaces/inkscape"
   xmlns:sodipodi="http://sodipodi.sourceforge.net/DTD/sodipodi-0.dtd"
   xmlns:xlink="http://www.w3.org/1999/xlink"
   xmlns="http://www.w3.org/2000/svg"
   xmlns:svg="http://www.w3.org/2000/svg"
   xmlns:rdf="http://www.w3.org/1999/02/22-rdf-syntax-ns#"
   xmlns:cc="http://creativecommons.org/ns#"
   xmlns:dc="http://purl.org/dc/elements/1.1/"><metadata
     id="metadata4142"><rdf:RDF><cc:Work
         rdf:about=""><dc:format>image/svg+xml</dc:format><dc:type
           rdf:resource="http://purl.org/dc/dcmitype/StillImage" /></cc:Work></rdf:RDF></metadata><defs
     id="defs4140"><linearGradient
       inkscape:collect="always"
       id="linearGradient4176"><stop
         style="stop-color:#a7a5a6;stop-opacity:1;"
         offset="0"
         id="stop4178" /><stop
         style="stop-color:#a7a5a6;stop-opacity:0;"
         offset="1"
         id="stop4180" /></linearGradient><linearGradient
       inkscape:collect="always"
       xlink:href="#linearGradient4176"
       id="linearGradient4182"
       x1="159.48534"
       y1="-368.23074"
       x2="559.06055"
       y2="-1070.6394"
       gradientUnits="userSpaceOnUse"
       gradientTransform="matrix(1.6139211,0,0,1.6139211,-37.591526,678.17154)" /><linearGradient
       inkscape:collect="always"
       xlink:href="#linearGradient4176"
       id="linearGradient5949"
       gradientUnits="userSpaceOnUse"
       gradientTransform="matrix(2.0174015,0,0,-2.0174015,-46.989405,-1072.715)"
       x1="159.48534"
       y1="-368.23074"
       x2="559.06055"
       y2="-1070.6394" /><linearGradient
       inkscape:collect="always"
       xlink:href="#linearGradient4176"
       id="linearGradient4803"
       gradientUnits="userSpaceOnUse"
       gradientTransform="matrix(2.0174015,0,0,-2.0174015,-46.989405,-1072.715)"
       x1="159.48534"
       y1="-368.23074"
       x2="559.06055"
       y2="-1070.6394" /></defs><sodipodi:namedview
     pagecolor="#ffffff"
     bordercolor="#666666"
     borderopacity="1"
     objecttolerance="10"
     gridtolerance="10"
     guidetolerance="10"
     inkscape:pageopacity="0"
     inkscape:pageshadow="2"
     inkscape:window-width="1858"
     inkscape:window-height="1057"
     id="namedview4138"
     showgrid="false"
     inkscape:zoom="0.47676768"
     inkscape:cx="898.76059"
     inkscape:cy="601.97033"
     inkscape:window-x="3654"
     inkscape:window-y="-8"
     inkscape:window-maximized="1"
     inkscape:current-layer="layer9"
     units="px"
     inkscape:showpageshadow="2"
     inkscape:pagecheckerboard="0"
     inkscape:deskcolor="#d1d1d1" /><g
     inkscape:groupmode="layer"
     id="layer9"
     inkscape:label="LETTERS"
     style="display:inline"
     transform="translate(0,315)"><path
       d="m 485.964,97.421643 h 65.35931 l 64.2798,135.148637 65.07272,-135.148623 h 64.56229 L 615.60311,351.694 v 0 L 485.964,97.421657 Z"
       style="fill:#008770;fill-opacity:1;fill-rule:nonzero;stroke:#231f20;stroke-width:13.2956;stroke-linecap:butt;stroke-linejoin:miter;stroke-miterlimit:4;stroke-dasharray:none;stroke-opacity:1"
       id="path5960"
       inkscape:connector-curvature="0" /><path
       d="m 1001.5016,97.421643 h 194.4553 L 1082.4914,297.67713 h 106.8137 V 351.694 H 984.0519 l 113.4518,-200.26639 h -96.0021 z"
       style="fill:#008770;fill-opacity:1;fill-rule:nonzero;stroke:#231f20;stroke-width:13.2956;stroke-linecap:butt;stroke-linejoin:miter;stroke-miterlimit:4;stroke-dasharray:none;stroke-opacity:1"
       id="path5962"
       inkscape:connector-curvature="0" /><path
       d="m 1628.2229,174.22716 c -6.9686,-11.54035 -19.6416,-19.25938 -34.1134,-19.25938 -21.9971,0 -39.8234,17.82364 -39.8234,39.80163 V 351.694 H 1490.301 V 194.7776 c 0,-57.04389 46.2651,-103.292615 103.2789,-103.292615 38.0984,0 71.3602,20.596835 89.2548,51.260075 z"
       style="fill:#008770;fill-opacity:1;fill-rule:nonzero;stroke:#231f20;stroke-width:13.2956;stroke-linecap:butt;stroke-linejoin:miter;stroke-miterlimit:4;stroke-dasharray:none;stroke-opacity:1"
       id="path5964"
       inkscape:connector-curvature="0" /><path
       d="m 1469.8297,225.00684 c 0,75.22509 -60.9798,136.20766 -136.2213,136.20766 -75.2223,0 -136.2185,-60.98257 -136.2185,-136.20766 0,-75.23877 60.9962,-136.221337 136.2185,-136.221337 75.2415,0 136.2213,60.982567 136.2213,136.221337 m -136.2404,-82.72579 c -45.6236,0 -82.6166,36.9902 -82.6166,82.61387 0,45.62364 36.993,82.61385 82.6166,82.61385 45.61,0 82.603,-36.99021 82.603,-82.61385 0,-45.62367 -36.993,-82.61387 -82.603,-82.61387 z"
       style="fill:#008770;fill-opacity:1;fill-rule:nonzero;stroke:#231f20;stroke-width:13.2956;stroke-linecap:butt;stroke-linejoin:miter;stroke-miterlimit:4;stroke-dasharray:none;stroke-opacity:1"
       id="path5966"
       inkscape:connector-curvature="0" /><path
       d="m 929.16705,265.82927 c -14.12244,24.38812 -40.52904,40.80336 -70.74324,40.80336 -45.11051,0 -81.68722,-36.58081 -81.68722,-81.69404 0,-45.12141 36.57671,-81.68582 81.68722,-81.68582 20.0359,0 38.38772,7.19768 52.59753,19.16382 l -100.11957,57.82453 27.23228,47.14397 149.2997,-86.11855 C 969.22797,127.49533 918.35139,88.785517 858.42381,88.785517 c -75.18282,0 -136.15174,60.952533 -136.15174,136.153073 0,75.19508 60.96892,136.14761 136.15174,136.14761 50.3716,0 94.36709,-27.34689 117.91178,-68.02467 z"
       style="fill:#008770;fill-opacity:1;fill-rule:nonzero;stroke:#231f20;stroke-width:12.8223;stroke-linecap:butt;stroke-linejoin:miter;stroke-miterlimit:4;stroke-dasharray:none;stroke-opacity:1"
       id="path5968"
       inkscape:connector-curvature="0" /><path
       d="m 441.34207,265.82927 c -14.13063,24.38812 -40.51128,40.80336 -70.72415,40.80336 -45.12958,0 -81.68718,-36.58081 -81.68718,-81.69404 0,-45.12141 36.5576,-81.68582 81.68718,-81.68582 20.03594,0 38.36862,7.19768 52.57979,19.16382 l -100.11955,57.82453 27.22818,47.14397 149.29971,-86.11855 C 481.41938,127.49533 430.54007,88.785517 370.61792,88.785517 c -75.19644,0 -136.15169,60.952533 -136.15169,136.153073 0,75.19508 60.95525,136.14761 136.15169,136.14761 50.37161,0 94.35892,-27.34689 117.89952,-68.02467 z"
       style="fill:#008770;fill-opacity:1;fill-rule:nonzero;stroke:#231f20;stroke-width:12.8223;stroke-linecap:butt;stroke-linejoin:miter;stroke-miterlimit:4;stroke-dasharray:none;stroke-opacity:1"
       id="path5970"
       inkscape:connector-curvature="0" /></g><g
     inkscape:groupmode="layer"
     id="layer8"
     inkscape:label="GEAR_GRAY"
     style="display:none"
     transform="translate(0,315)"><path
       d="m 1014.6078,-190.80977 c 0,0 19.6442,1.75507 53.9213,10.78155 32.2109,8.47511 52.0653,17.62437 52.0653,17.62437 -11.3956,25.37893 -1.957,55.76921 22.6576,69.987184 24.6229,14.212526 55.671,7.192237 71.9442,-15.380734 0,0 16.1396,11.338348 41.3111,36.294188 23.6484,23.449162 36.2887,41.30832 36.2887,41.30832 -22.5702,16.27876 -29.5878,47.324115 -15.378,71.941503 14.2153,24.617404 44.6137,34.056024 69.9954,22.660344 0,0 8.2949,17.87004 17.6162,52.065265 8.7644,32.13171 10.7706,53.90224 10.7706,53.90224 -27.6771,2.82229 -49.2784,26.19504 -49.2811,54.61734 0,28.43052 21.604,51.80599 49.2893,54.61738 0,0 -1.7523,19.64423 -10.7788,53.92133 -8.4778,32.2054 -17.6271,52.08165 -17.6271,52.08165 -25.3817,-11.40933 -55.7829,-1.96526 -69.9899,22.65759 -14.2153,24.61194 -7.1896,55.66004 15.3725,71.94151 0,0 -11.3329,16.11772 -36.286,41.28919 -23.4437,23.65387 -41.2947,36.28056 -41.2947,36.28056 -16.2814,-22.56206 -47.3241,-29.57962 -71.936,-15.37531 -24.6201,14.21802 -34.0642,44.62194 -22.6549,69.99811 0,0 -17.8919,8.30589 -52.0898,17.62715 -32.1317,8.75897 -53.9159,10.77882 -53.9159,10.77882 -2.8141,-27.68536 -26.18955,-49.28939 -54.61463,-49.29212 -28.42641,0.004 -51.80049,21.60676 -54.62281,49.29212 0,0 -21.73776,-2.10719 -53.8954,-10.77882 -31.40156,-8.46692 -52.07073,-17.61621 -52.07073,-17.61621 11.40115,-25.38166 1.95979,-55.78286 -22.65761,-69.99537 -24.61329,-14.21526 -55.66412,-7.19223 -71.94286,15.37802 0,0 -17.79089,-12.7031 -41.30694,-36.29421 -22.96194,-23.03427 -36.29419,-41.30557 -36.29419,-41.30557 22.57163,-16.27602 29.59053,-47.3214 15.38209,-71.94151 -14.21522,-24.61467 -44.60963,-34.06146 -69.99127,-22.66034 0,0 -9.05103,-19.87898 -17.62305,-52.06527 -8.37002,-31.43024 -10.77881,-53.89951 -10.77881,-53.89951 27.68127,-2.82502 49.28937,-26.20049 49.28937,-54.62554 0,-28.42231 -21.60402,-51.80052 -49.28937,-54.61461 0,0 2.11129,-21.75689 10.77881,-53.91588 8.46418,-31.405665 17.62305,-52.089825 17.62305,-52.089825 25.38164,11.41204 55.77875,1.96796 69.994,-22.649441 14.21253,-24.620118 7.18952,-55.660014 -15.36982,-71.941517 0,0 12.69355,-17.779952 36.27508,-41.294646 23.03839,-22.966055 41.29193,-36.288751 41.29193,-36.288751 16.28421,22.564805 47.32957,29.590566 71.95109,15.378013 24.61328,-14.215223 34.05871,-44.610973 22.65076,-69.992653 0,0 19.89807,-9.05376 52.08436,-17.62713 31.42615,-8.36864 53.92136,-10.77878 53.92136,-10.77878 2.81141,27.68535 26.18548,49.28665 54.61734,49.28936 28.41959,-0.004 51.79505,-21.60128 54.61195,-49.28118 m 114.2269,509.14513 c -32.2327,55.64092 -92.4264,93.07058 -161.35728,93.07058 -102.93093,0 -186.3623,-83.44089 -186.3623,-186.365 0,-102.92411 83.43137,-186.362278 186.3623,-186.362278 45.69738,0 87.54878,16.445263 119.96988,43.745743 L 859.05477,214.33312 921.17554,321.93012 1261.7752,125.43047 C 1220.2595,2.750207 1104.1928,-85.554679 967.49112,-85.554679 c -171.54243,0 -310.60379,139.062731 -310.60379,310.603809 0,171.5438 139.06136,310.60654 310.60379,310.60654 114.92568,0 215.26768,-62.41282 268.98978,-155.18593 l -107.6325,-62.12619 z"
       style="display:inline;fill:url(#linearGradient5949);fill-opacity:1;fill-rule:nonzero;stroke:none"
       id="path5990"
       inkscape:connector-curvature="0" /></g><g
     inkscape:groupmode="layer"
     id="layer7"
     inkscape:label="GEAR_GREEN"
     style="display:none"
     transform="translate(0,315)"><path
       inkscape:connector-curvature="0"
       id="path5926"
       style="fill:#068770;fill-opacity:1;fill-rule:nonzero;stroke:none"
       d="m 1014.6078,-190.80977 c 0,0 19.6442,1.75507 53.9213,10.78155 32.2109,8.47511 52.0653,17.62437 52.0653,17.62437 -11.3956,25.37893 -1.957,55.76921 22.6576,69.987184 24.6229,14.212526 55.671,7.192237 71.9442,-15.380734 0,0 16.1396,11.338348 41.3111,36.294188 23.6484,23.449162 36.2887,41.30832 36.2887,41.30832 -22.5702,16.27876 -29.5878,47.324115 -15.378,71.941503 14.2153,24.617404 44.6137,34.056024 69.9954,22.660344 0,0 8.2949,17.87004 17.6162,52.065265 8.7644,32.13171 10.7706,53.90224 10.7706,53.90224 -27.6771,2.82229 -49.2784,26.19504 -49.2811,54.61734 0,28.43052 21.604,51.80599 49.2893,54.61738 0,0 -1.7523,19.64423 -10.7788,53.92133 -8.4778,32.2054 -17.6271,52.08165 -17.6271,52.08165 -25.3817,-11.40933 -55.7829,-1.96526 -69.9899,22.65759 -14.2153,24.61194 -7.1896,55.66004 15.3725,71.94151 0,0 -11.3329,16.11772 -36.286,41.28919 -23.4437,23.65387 -41.2947,36.28056 -41.2947,36.28056 -16.2814,-22.56206 -47.3241,-29.57962 -71.936,-15.37531 -24.6201,14.21802 -34.0642,44.62194 -22.6549,69.99811 0,0 -17.8919,8.30589 -52.0898,17.62715 -32.1317,8.75897 -53.9159,10.77882 -53.9159,10.77882 -2.8141,-27.68536 -26.18955,-49.28939 -54.61463,-49.29212 -28.42641,0.004 -51.80049,21.60676 -54.62281,49.29212 0,0 -21.73776,-2.10719 -53.8954,-10.77882 -31.40156,-8.46692 -52.07073,-17.61621 -52.07073,-17.61621 11.40115,-25.38166 1.95979,-55.78286 -22.65761,-69.99537 -24.61329,-14.21526 -55.66412,-7.19223 -71.94286,15.37802 0,0 -17.79089,-12.7031 -41.30694,-36.29421 -22.96194,-23.03427 -36.29419,-41.30557 -36.29419,-41.30557 22.57163,-16.27602 29.59053,-47.3214 15.38209,-71.94151 -14.21522,-24.61467 -44.60963,-34.06146 -69.99127,-22.66034 0,0 -9.05103,-19.87898 -17.62305,-52.06527 -8.37002,-31.43024 -10.77881,-53.89951 -10.77881,-53.89951 27.68127,-2.82502 49.28937,-26.20049 49.28937,-54.62554 0,-28.42231 -21.60402,-51.80052 -49.28937,-54.61461 0,0 2.11129,-21.75689 10.77881,-53.91588 8.46418,-31.405665 17.62305,-52.089825 17.62305,-52.089825 25.38164,11.41204 55.77875,1.96796 69.994,-22.649441 14.21253,-24.620118 7.18952,-55.660014 -15.36982,-71.941517 0,0 12.69355,-17.779952 36.27508,-41.294646 23.03839,-22.966055 41.29193,-36.288751 41.29193,-36.288751 16.28421,22.564805 47.32957,29.590566 71.95109,15.378013 24.61328,-14.215223 34.05871,-44.610973 22.65076,-69.992653 0,0 19.89807,-9.05376 52.08436,-17.62713 31.42615,-8.36864 53.92136,-10.77878 53.92136,-10.77878 2.81141,27.68535 26.18548,49.28665 54.61734,49.28936 28.41959,-0.004 51.79505,-21.60128 54.61195,-49.28118 m 114.2269,509.14513 c -32.2327,55.64092 -92.4264,93.07058 -161.35728,93.07058 -102.93093,0 -186.3623,-83.44089 -186.3623,-186.365 0,-102.92411 83.43137,-186.362278 186.3623,-186.362278 45.69738,0 87.54878,16.445263 119.96988,43.745743 L 859.05477,214.33312 921.17554,321.93012 1261.7752,125.43047 C 1220.2595,2.750207 1104.1928,-85.554679 967.49112,-85.554679 c -171.54243,0 -310.60379,139.062731 -310.60379,310.603809 0,171.5438 139.06136,310.60654 310.60379,310.60654 114.92568,0 215.26768,-62.41282 268.98978,-155.18593 l -107.6325,-62.12619 z"
       inkscape:export-xdpi="55.410137"
       inkscape:export-ydpi="55.410137" /></g><g
     inkscape:groupmode="layer"
     id="layer1"
     inkscape:label="WHITE_BG"
     style="display:inline"><g
       id="g4144"
       inkscape:groupmode="layer"
       inkscape:label="EVEZOR LOGO_08-27-16"
       transform="matrix(1.25,0,0,-1.25,0,89.99939)"
       style="display:inline"><path
         d="m 810.28727,-27.352671 c 0,0 15.71538,-1.404057 43.13706,-8.625236 25.7687,-6.780093 41.65222,-14.099501 41.65222,-14.099501 -9.11652,-20.303148 -1.56563,-44.615377 18.12609,-55.989752 19.69827,-11.37002 44.53675,-5.75379 57.55538,12.304595 0,0 12.91165,-9.070685 33.04888,-29.035355 18.9187,-18.75933 29.0309,-33.04665 29.0309,-33.04665 -18.0562,-13.02301 -23.6702,-37.8593 -12.3024,-57.55321 11.3722,-19.69392 35.691,-27.24481 55.9963,-18.12827 0,0 6.636,-14.29604 14.093,-41.65221 7.0116,-25.70536 8.6165,-43.12179 8.6165,-43.12179 -22.1417,-2.25783 -39.4228,-20.95603 -39.4249,-43.69387 0,-22.74441 17.2832,-41.44479 39.4314,-43.6939 0,0 -1.4018,-15.71538 -8.623,-43.13706 -6.7823,-25.76432 -14.1017,-41.66532 -14.1017,-41.66532 -20.3053,9.12746 -44.6263,1.5722 -55.9919,-18.12607 -11.3722,-19.68956 -5.7516,-44.52804 12.298,-57.55322 0,0 -9.0663,-12.89417 -29.0288,-33.03134 -18.75497,-18.9231 -33.03573,-29.02445 -33.03573,-29.02445 -13.02518,18.04964 -37.85929,23.6637 -57.54883,12.30024 -19.69608,-11.3744 -27.25136,-35.69755 -18.1239,-55.99849 0,0 -14.31352,-6.64471 -41.67187,-14.10171 -25.70536,-7.00718 -43.1327,-8.62306 -43.1327,-8.62306 -2.25129,22.14829 -20.95165,39.43151 -43.69171,39.43369 -22.74113,-0.003 -41.44039,-17.2854 -43.69825,-39.43369 0,0 -17.39021,1.68575 -43.11632,8.62306 -25.12125,6.77354 -41.65658,14.09296 -41.65658,14.09296 9.12091,20.30533 1.56783,44.62629 -18.12609,55.99631 -19.69063,11.3722 -44.5313,5.75378 -57.55429,-12.30242 0,0 -14.23272,10.16248 -33.04554,29.03536 -18.36957,18.42742 -29.03536,33.04446 -29.03536,33.04446 18.05729,13.02082 23.67242,37.85712 12.30568,57.5532 -11.37219,19.69174 -35.68771,27.24918 -55.99302,18.12827 0,0 -7.24083,15.90319 -14.09845,41.65222 -6.69601,25.14419 -8.62303,43.1196 -8.62303,43.1196 22.14501,2.26002 39.43149,20.96039 39.43149,43.70044 0,22.73784 -17.28322,41.44041 -39.43149,43.69168 0,0 1.68901,17.40551 8.62303,43.13271 6.77135,25.12453 14.09845,41.67186 14.09845,41.67186 20.30531,-9.12964 44.62299,-1.57437 55.99521,18.11955 11.37001,19.69609 5.75161,44.52801 -12.29587,57.55321 0,0 10.15485,14.22397 29.02006,33.03572 18.43071,18.37284 33.03355,29.030992 33.03355,29.030992 13.02737,-18.051832 37.86366,-23.672442 57.56086,-12.302402 19.69063,11.372182 27.24698,35.688775 18.12062,55.994112 0,0 15.91846,7.243014 41.66749,14.101703 25.14092,6.694916 43.13708,8.623034 43.13708,8.623034 2.24912,-22.148278 20.94838,-39.429315 43.69388,-39.43149 22.73566,0.0028 41.43604,17.281023 43.68953,39.424937 m 91.38157,-407.316096 c -25.78617,-44.51273 -73.94115,-74.45646 -129.08584,-74.45646 -82.34475,0 -149.08984,66.75271 -149.08984,149.092 0,82.33928 66.74509,149.08982 149.08984,149.08982 36.55787,0 70.03904,-13.1562 95.97587,-34.99659 l -182.72495,-105.52042 49.69661,-86.07761 272.47974,157.19973 c -33.21258,98.1442 -126.06592,168.78811 -235.42727,168.78811 -137.23395,0 -248.48304,-111.25019 -248.48304,-248.48304 0,-137.23504 111.24909,-248.48523 248.48304,-248.48523 91.94057,0 172.21417,49.93026 215.19183,124.14874 z"
         style="fill:url(#linearGradient4182);fill-opacity:1;fill-rule:nonzero;stroke:none"
         id="path4150"
         inkscape:connector-curvature="0" /><path
         d="m 388.77121,-259.10493 h 52.28744 l 51.42384,-108.1189 52.05818,108.1189 h 51.64984 L 492.48249,-462.52281 v 0 z"
         style="fill:#068770;fill-opacity:1;fill-rule:nonzero;stroke:#231f20;stroke-width:10.6365;stroke-linecap:butt;stroke-linejoin:miter;stroke-miterlimit:4;stroke-dasharray:none;stroke-opacity:1"
         id="path4164"
         inkscape:connector-curvature="0" /><path
         d="m 801.2013,-259.10493 h 155.5642 l -90.77234,-160.20438 h 85.45091 v -43.2135 H 787.24152 l 90.76145,160.21311 H 801.2013 Z"
         style="fill:#068770;fill-opacity:1;fill-rule:nonzero;stroke:#231f20;stroke-width:10.6365;stroke-linecap:butt;stroke-linejoin:miter;stroke-miterlimit:4;stroke-dasharray:none;stroke-opacity:1"
         id="path4166"
         inkscape:connector-curvature="0" /><path
         d="m 1302.5783,-320.54934 c -5.5748,9.23228 -15.7132,15.4075 -27.2907,15.4075 -17.5977,0 -31.8588,-14.25891 -31.8588,-31.84129 v -125.53968 h -51.188 v 125.53312 c 0,45.63511 37.0121,82.63408 82.6232,82.63408 30.4787,0 57.0881,-16.47746 71.4038,-41.00805 z"
         style="fill:#068770;fill-opacity:1;fill-rule:nonzero;stroke:#231f20;stroke-width:10.6365;stroke-linecap:butt;stroke-linejoin:miter;stroke-miterlimit:4;stroke-dasharray:none;stroke-opacity:1"
         id="path4168"
         inkscape:connector-curvature="0" /><path
         d="m 1175.8638,-361.17308 c 0,-60.18008 -48.7839,-108.96613 -108.977,-108.96613 -60.1779,0 -108.97489,48.78605 -108.97489,108.96613 0,60.191 48.79699,108.97706 108.97489,108.97706 60.1931,0 108.977,-48.78606 108.977,-108.97706 m -108.9923,66.18063 c -36.4989,0 -66.0933,-29.59217 -66.0933,-66.0911 0,-36.49891 29.5944,-66.09108 66.0933,-66.09108 36.488,0 66.0823,29.59217 66.0823,66.09108 0,36.49893 -29.5943,66.0911 -66.0823,66.0911 z"
         style="fill:#068770;fill-opacity:1;fill-rule:nonzero;stroke:#231f20;stroke-width:10.6365;stroke-linecap:butt;stroke-linejoin:miter;stroke-miterlimit:4;stroke-dasharray:none;stroke-opacity:1"
         id="path4170"
         inkscape:connector-curvature="0" /><path
         d="m 743.33364,-393.83102 c -11.29795,-19.5105 -32.42323,-32.64269 -56.59458,-32.64269 -36.08841,0 -65.34978,29.26464 -65.34978,65.35523 0,36.09712 29.26137,65.34865 65.34978,65.34865 16.02871,0 30.71017,-5.75814 42.07802,-15.33105 l -80.09566,-46.25963 21.78582,-37.71517 119.43977,68.89484 c -14.56463,43.01697 -55.2659,73.98482 -103.20795,73.98482 -60.14626,0 -108.9214,-48.76203 -108.9214,-108.92246 0,-60.15607 48.77514,-108.9181 108.9214,-108.9181 40.29727,0 75.49367,21.87752 94.32942,54.41975 z"
         style="fill:#068770;fill-opacity:1;fill-rule:nonzero;stroke:#231f20;stroke-width:10.2578;stroke-linecap:butt;stroke-linejoin:miter;stroke-miterlimit:4;stroke-dasharray:none;stroke-opacity:1"
         id="path4172"
         inkscape:connector-curvature="0" /><path
         d="m 353.07367,-393.83102 c -11.30451,-19.5105 -32.40903,-32.64269 -56.57932,-32.64269 -36.10368,0 -65.34975,29.26464 -65.34975,65.35523 0,36.09712 29.24607,65.34865 65.34975,65.34865 16.02874,0 30.69489,-5.75814 42.06382,-15.33105 l -80.09563,-46.25963 21.78253,-37.71517 119.43978,68.89484 c -14.54934,43.01697 -55.25278,73.98482 -103.1905,73.98482 -60.15716,0 -108.92136,-48.76203 -108.92136,-108.92246 0,-60.15607 48.7642,-108.9181 108.92136,-108.9181 40.29729,0 75.48714,21.87752 94.31961,54.41975 z"
         style="fill:#068770;fill-opacity:1;fill-rule:nonzero;stroke:#231f20;stroke-width:10.2578;stroke-linecap:butt;stroke-linejoin:miter;stroke-miterlimit:4;stroke-dasharray:none;stroke-opacity:1"
         id="path4174"
         inkscape:connector-curvature="0" /></g></g><g
     inkscape:groupmode="layer"
     id="layer2"
     inkscape:label="BLCK_BG"
     style="display:inline"><g
       transform="translate(0,315)"
       style="display:none"
       inkscape:label="GEAR_GRAY for BLK"
       id="g4801"
       inkscape:groupmode="layer"><path
         inkscape:connector-curvature="0"
         id="path4799"
         style="display:inline;fill:url(#linearGradient4803);fill-opacity:1;fill-rule:nonzero;stroke:none"
         d="m 1014.6078,-190.80977 c 0,0 19.6442,1.75507 53.9213,10.78155 32.2109,8.47511 52.0653,17.62437 52.0653,17.62437 -11.3956,25.37893 -1.957,55.76921 22.6576,69.987184 24.6229,14.212526 55.671,7.192237 71.9442,-15.380734 0,0 16.1396,11.338348 41.3111,36.294188 23.6484,23.449162 36.2887,41.30832 36.2887,41.30832 -22.5702,16.27876 -29.5878,47.324115 -15.378,71.941503 14.2153,24.617404 44.6137,34.056024 69.9954,22.660344 0,0 8.2949,17.87004 17.6162,52.065265 8.7644,32.13171 10.7706,53.90224 10.7706,53.90224 -27.6771,2.82229 -49.2784,26.19504 -49.2811,54.61734 0,28.43052 21.604,51.80599 49.2893,54.61738 0,0 -1.7523,19.64423 -10.7788,53.92133 -8.4778,32.2054 -17.6271,52.08165 -17.6271,52.08165 -25.3817,-11.40933 -55.7829,-1.96526 -69.9899,22.65759 -14.2153,24.61194 -7.1896,55.66004 15.3725,71.94151 0,0 -11.3329,16.11772 -36.286,41.28919 -23.4437,23.65387 -41.2947,36.28056 -41.2947,36.28056 -16.2814,-22.56206 -47.3241,-29.57962 -71.936,-15.37531 -24.6201,14.21802 -34.0642,44.62194 -22.6549,69.99811 0,0 -17.8919,8.30589 -52.0898,17.62715 -32.1317,8.75897 -53.9159,10.77882 -53.9159,10.77882 -2.8141,-27.68536 -26.18955,-49.28939 -54.61463,-49.29212 -28.42641,0.004 -51.80049,21.60676 -54.62281,49.29212 0,0 -21.73776,-2.10719 -53.8954,-10.77882 -31.40156,-8.46692 -52.07073,-17.61621 -52.07073,-17.61621 11.40115,-25.38166 1.95979,-55.78286 -22.65761,-69.99537 -24.61329,-14.21526 -55.66412,-7.19223 -71.94286,15.37802 0,0 -17.79089,-12.7031 -41.30694,-36.29421 -22.96194,-23.03427 -36.29419,-41.30557 -36.29419,-41.30557 22.57163,-16.27602 29.59053,-47.3214 15.38209,-71.94151 -14.21522,-24.61467 -44.60963,-34.06146 -69.99127,-22.66034 0,0 -9.05103,-19.87898 -17.62305,-52.06527 -8.37002,-31.43024 -10.77881,-53.89951 -10.77881,-53.89951 27.68127,-2.82502 49.28937,-26.20049 49.28937,-54.62554 0,-28.42231 -21.60402,-51.80052 -49.28937,-54.61461 0,0 2.11129,-21.75689 10.77881,-53.91588 8.46418,-31.405665 17.62305,-52.089825 17.62305,-52.089825 25.38164,11.41204 55.77875,1.96796 69.994,-22.649441 14.21253,-24.620118 7.18952,-55.660014 -15.36982,-71.941517 0,0 12.69355,-17.779952 36.27508,-41.294646 23.03839,-22.966055 41.29193,-36.288751 41.29193,-36.288751 16.28421,22.564805 47.32957,29.590566 71.95109,15.378013 24.61328,-14.215223 34.05871,-44.610973 22.65076,-69.992653 0,0 19.89807,-9.05376 52.08436,-17.62713 31.42615,-8.36864 53.92136,-10.77878 53.92136,-10.77878 2.81141,27.68535 26.18548,49.28665 54.61734,49.28936 28.41959,-0.004 51.79505,-21.60128 54.61195,-49.28118 m 114.2269,509.14513 c -32.2327,55.64092 -92.4264,93.07058 -161.35728,93.07058 -102.93093,0 -186.3623,-83.44089 -186.3623,-186.365 0,-102.92411 83.43137,-186.362278 186.3623,-186.362278 45.69738,0 87.54878,16.445263 119.96988,43.745743 L 859.05477,214.33312 921.17554,321.93012 1261.7752,125.43047 C 1220.2595,2.750207 1104.1928,-85.554679 967.49112,-85.554679 c -171.54243,0 -310.60379,139.062731 -310.60379,310.603809 0,171.5438 139.06136,310.60654 310.60379,310.60654 114.92568,0 215.26768,-62.41282 268.98978,-155.18593 l -107.6325,-62.12619 z" /></g><g
       transform="translate(0,315)"
       style="display:none"
       inkscape:label="LETTERS_DARK"
       id="g4790"
       inkscape:groupmode="layer"><path
         inkscape:connector-curvature="0"
         id="path4778"
         style="fill:#008770;fill-opacity:1;fill-rule:nonzero;stroke:#231f20;stroke-width:13.2956;stroke-linecap:butt;stroke-linejoin:miter;stroke-miterlimit:4;stroke-dasharray:none;stroke-opacity:1"
         d="m 485.964,97.421643 h 65.35931 l 64.2798,135.148637 65.07272,-135.148623 h 64.56229 L 615.60311,351.694 v 0 L 485.964,97.421657 Z" /><path
         inkscape:connector-curvature="0"
         id="path4780"
         style="fill:#008770;fill-opacity:1;fill-rule:nonzero;stroke:#231f20;stroke-width:13.2956;stroke-linecap:butt;stroke-linejoin:miter;stroke-miterlimit:4;stroke-dasharray:none;stroke-opacity:1"
         d="m 1001.5016,97.421643 h 194.4553 L 1082.4914,297.67713 h 106.8137 V 351.694 H 984.0519 l 113.4518,-200.26639 h -96.0021 z" /><path
         inkscape:connector-curvature="0"
         id="path4782"
         style="fill:#008770;fill-opacity:1;fill-rule:nonzero;stroke:#231f20;stroke-width:13.2956;stroke-linecap:butt;stroke-linejoin:miter;stroke-miterlimit:4;stroke-dasharray:none;stroke-opacity:1"
         d="m 1628.2229,174.22716 c -6.9686,-11.54035 -19.6416,-19.25938 -34.1134,-19.25938 -21.9971,0 -39.8234,17.82364 -39.8234,39.80163 V 351.694 H 1490.301 V 194.7776 c 0,-57.04389 46.2651,-103.292615 103.2789,-103.292615 38.0984,0 71.3602,20.596835 89.2548,51.260075 z" /><path
         inkscape:connector-curvature="0"
         id="path4784"
         style="fill:#008770;fill-opacity:1;fill-rule:nonzero;stroke:#231f20;stroke-width:13.2956;stroke-linecap:butt;stroke-linejoin:miter;stroke-miterlimit:4;stroke-dasharray:none;stroke-opacity:1"
         d="m 1469.8297,225.00684 c 0,75.22509 -60.9798,136.20766 -136.2213,136.20766 -75.2223,0 -136.2185,-60.98257 -136.2185,-136.20766 0,-75.23877 60.9962,-136.221337 136.2185,-136.221337 75.2415,0 136.2213,60.982567 136.2213,136.221337 m -136.2404,-82.72579 c -45.6236,0 -82.6166,36.9902 -82.6166,82.61387 0,45.62364 36.993,82.61385 82.6166,82.61385 45.61,0 82.603,-36.99021 82.603,-82.61385 0,-45.62367 -36.993,-82.61387 -82.603,-82.61387 z" /><path
         inkscape:connector-curvature="0"
         id="path4786"
         style="fill:#008770;fill-opacity:1;fill-rule:nonzero;stroke:#231f20;stroke-width:12.8223;stroke-linecap:butt;stroke-linejoin:miter;stroke-miterlimit:4;stroke-dasharray:none;stroke-opacity:1"
         d="m 929.16705,265.82927 c -14.12244,24.38812 -40.52904,40.80336 -70.74324,40.80336 -45.11051,0 -81.68722,-36.58081 -81.68722,-81.69404 0,-45.12141 36.57671,-81.68582 81.68722,-81.68582 20.0359,0 38.38772,7.19768 52.59753,19.16382 l -100.11957,57.82453 27.23228,47.14397 149.2997,-86.11855 C 969.22797,127.49533 918.35139,88.785517 858.42381,88.785517 c -75.18282,0 -136.15174,60.952533 -136.15174,136.153073 0,75.19508 60.96892,136.14761 136.15174,136.14761 50.3716,0 94.36709,-27.34689 117.91178,-68.02467 z" /><path
         inkscape:connector-curvature="0"
         id="path4788"
         style="fill:#008770;fill-opacity:1;fill-rule:nonzero;stroke:#231f20;stroke-width:12.8223;stroke-linecap:butt;stroke-linejoin:miter;stroke-miterlimit:4;stroke-dasharray:none;stroke-opacity:1"
         d="m 441.34207,265.82927 c -14.13063,24.38812 -40.51128,40.80336 -70.72415,40.80336 -45.12958,0 -81.68718,-36.58081 -81.68718,-81.69404 0,-45.12141 36.5576,-81.68582 81.68718,-81.68582 20.03594,0 38.36862,7.19768 52.57979,19.16382 l -100.11955,57.82453 27.22818,47.14397 149.29971,-86.11855 C 481.41938,127.49533 430.54007,88.785517 370.61792,88.785517 c -75.19644,0 -136.15169,60.952533 -136.15169,136.153073 0,75.19508 60.95525,136.14761 136.15169,136.14761 50.37161,0 94.35892,-27.34689 117.89952,-68.02467 z" /></g></g></svg>
