<?xml version="1.0" encoding="UTF-8" standalone="no"?>
<!-- Created with Inkscape (http://www.inkscape.org/) -->

<svg
   width="1999.9999"
   height="1297"
   viewBox="0 0 529.16662 343.16458"
   version="1.1"
   id="svg1"
   xml:space="preserve"
   xmlns:inkscape="http://www.inkscape.org/namespaces/inkscape"
   xmlns:sodipodi="http://sodipodi.sourceforge.net/DTD/sodipodi-0.dtd"
   xmlns:xlink="http://www.w3.org/1999/xlink"
   xmlns="http://www.w3.org/2000/svg"
   xmlns:svg="http://www.w3.org/2000/svg"><sodipodi:namedview
     id="namedview1"
     pagecolor="#ffffff"
     bordercolor="#666666"
     borderopacity="1.0"
     inkscape:showpageshadow="2"
     inkscape:pageopacity="0.0"
     inkscape:pagecheckerboard="0"
     inkscape:deskcolor="#d1d1d1"
     inkscape:document-units="mm" /><defs
     id="defs1"><linearGradient
       inkscape:collect="always"
       id="linearGradient2"><stop
         style="stop-color:#e7e7e7;stop-opacity:1;"
         offset="0"
         id="stop1" /><stop
         style="stop-color:#efefef;stop-opacity:0;"
         offset="1"
         id="stop2" /></linearGradient><linearGradient
       inkscape:collect="always"
       id="linearGradient4176"><stop
         style="stop-color:#a7a5a6;stop-opacity:1;"
         offset="0"
         id="stop4178" /><stop
         style="stop-color:#a7a5a6;stop-opacity:0;"
         offset="1"
         id="stop4180" /></linearGradient><linearGradient
       inkscape:collect="always"
       xlink:href="#linearGradient2"
       id="linearGradient4182"
       x1="159.48534"
       y1="-368.23074"
       x2="559.06055"
       y2="-1070.6394"
       gradientUnits="userSpaceOnUse"
       gradientTransform="matrix(2.4602333,0,0,2.4602333,-472.27398,1246.1776)" /><linearGradient
       inkscape:collect="always"
       xlink:href="#linearGradient4176"
       id="linearGradient1"
       gradientUnits="userSpaceOnUse"
       gradientTransform="matrix(2.0174015,0,0,-2.0174015,-46.989405,-1072.715)"
       x1="159.48534"
       y1="-368.23074"
       x2="559.06055"
       y2="-1070.6394" /></defs><g
     inkscape:label="Layer 1"
     inkscape:groupmode="layer"
     id="layer1"><g
       id="layer9"
       inkscape:label="LETTERS"
       style="display:inline;fill:#2f2f2f;fill-opacity:1"
       transform="matrix(0.28450078,0,0,0.33636488,-4.7973126,101.21664)"><path
         d="m 485.964,97.421643 h 65.35931 l 64.2798,135.148637 65.07272,-135.148623 h 64.56229 L 615.60311,351.694 v 0 L 485.964,97.421657 Z"
         style="fill:#2f2f2f;fill-opacity:1;fill-rule:nonzero;stroke:#231f20;stroke-width:13.2956;stroke-linecap:butt;stroke-linejoin:miter;stroke-miterlimit:4;stroke-dasharray:none;stroke-opacity:1"
         id="path5960"
         inkscape:connector-curvature="0" /><path
         d="m 1001.5016,97.421643 h 194.4553 L 1082.4914,297.67713 h 106.8137 V 351.694 H 984.0519 l 113.4518,-200.26639 h -96.0021 z"
         style="fill:#2f2f2f;fill-opacity:1;fill-rule:nonzero;stroke:#231f20;stroke-width:13.2956;stroke-linecap:butt;stroke-linejoin:miter;stroke-miterlimit:4;stroke-dasharray:none;stroke-opacity:1"
         id="path5962"
         inkscape:connector-curvature="0" /><path
         d="m 1628.2229,174.22716 c -6.9686,-11.54035 -19.6416,-19.25938 -34.1134,-19.25938 -21.9971,0 -39.8234,17.82364 -39.8234,39.80163 V 351.694 H 1490.301 V 194.7776 c 0,-57.04389 46.2651,-103.292615 103.2789,-103.292615 38.0984,0 71.3602,20.596835 89.2548,51.260075 z"
         style="fill:#2f2f2f;fill-opacity:1;fill-rule:nonzero;stroke:#231f20;stroke-width:13.2956;stroke-linecap:butt;stroke-linejoin:miter;stroke-miterlimit:4;stroke-dasharray:none;stroke-opacity:1"
         id="path5964"
         inkscape:connector-curvature="0" /><path
         d="m 1469.8297,225.00684 c 0,75.22509 -60.9798,136.20766 -136.2213,136.20766 -75.2223,0 -136.2185,-60.98257 -136.2185,-136.20766 0,-75.23877 60.9962,-136.221337 136.2185,-136.221337 75.2415,0 136.2213,60.982567 136.2213,136.221337 m -136.2404,-82.72579 c -45.6236,0 -82.6166,36.9902 -82.6166,82.61387 0,45.62364 36.993,82.61385 82.6166,82.61385 45.61,0 82.603,-36.99021 82.603,-82.61385 0,-45.62367 -36.993,-82.61387 -82.603,-82.61387 z"
         style="fill:#2f2f2f;fill-opacity:1;fill-rule:nonzero;stroke:#231f20;stroke-width:13.2956;stroke-linecap:butt;stroke-linejoin:miter;stroke-miterlimit:4;stroke-dasharray:none;stroke-opacity:1"
         id="path5966"
         inkscape:connector-curvature="0" /><path
         d="m 929.16705,265.82927 c -14.12244,24.38812 -40.52904,40.80336 -70.74324,40.80336 -45.11051,0 -81.68722,-36.58081 -81.68722,-81.69404 0,-45.12141 36.57671,-81.68582 81.68722,-81.68582 20.0359,0 38.38772,7.19768 52.59753,19.16382 l -100.11957,57.82453 27.23228,47.14397 149.2997,-86.11855 C 969.22797,127.49533 918.35139,88.785517 858.42381,88.785517 c -75.18282,0 -136.15174,60.952533 -136.15174,136.153073 0,75.19508 60.96892,136.14761 136.15174,136.14761 50.3716,0 94.36709,-27.34689 117.91178,-68.02467 z"
         style="fill:#2f2f2f;fill-opacity:1;fill-rule:nonzero;stroke:#231f20;stroke-width:12.8223;stroke-linecap:butt;stroke-linejoin:miter;stroke-miterlimit:4;stroke-dasharray:none;stroke-opacity:1"
         id="path5968"
         inkscape:connector-curvature="0" /><path
         d="m 441.34207,265.82927 c -14.13063,24.38812 -40.51128,40.80336 -70.72415,40.80336 -45.12958,0 -81.68718,-36.58081 -81.68718,-81.69404 0,-45.12141 36.5576,-81.68582 81.68718,-81.68582 20.03594,0 38.36862,7.19768 52.57979,19.16382 l -100.11955,57.82453 27.22818,47.14397 149.29971,-86.11855 C 481.41938,127.49533 430.54007,88.785517 370.61792,88.785517 c -75.19644,0 -136.15169,60.952533 -136.15169,136.153073 0,75.19508 60.95525,136.14761 136.15169,136.14761 50.37161,0 94.35892,-27.34689 117.89952,-68.02467 z"
         style="fill:#2f2f2f;fill-opacity:1;fill-rule:nonzero;stroke:#231f20;stroke-width:12.8223;stroke-linecap:butt;stroke-linejoin:miter;stroke-miterlimit:4;stroke-dasharray:none;stroke-opacity:1"
         id="path5970"
         inkscape:connector-curvature="0" /><rect
         style="display:inline;opacity:1;fill:#2f2f2f;fill-opacity:1;stroke:#231f20;stroke-width:0.755906;stroke-linecap:round;stroke-miterlimit:4;stroke-dasharray:none;stroke-dashoffset:0;stroke-opacity:1"
         id="rect4789"
         width="1920"
         height="1080"
         x="0.37795275"
         y="-0.37795275"
         transform="translate(0,-315)" /></g><g
       id="layer8"
       inkscape:label="GEAR_GRAY"
       style="display:none"
       transform="matrix(0.26458333,0,0,0.26458333,15.338209,119.85847)"><path
         d="m 1014.6078,-190.80977 c 0,0 19.6442,1.75507 53.9213,10.78155 32.2109,8.47511 52.0653,17.62437 52.0653,17.62437 -11.3956,25.37893 -1.957,55.76921 22.6576,69.987184 24.6229,14.212526 55.671,7.192237 71.9442,-15.380734 0,0 16.1396,11.338348 41.3111,36.294188 23.6484,23.449162 36.2887,41.30832 36.2887,41.30832 -22.5702,16.27876 -29.5878,47.324115 -15.378,71.941503 14.2153,24.617404 44.6137,34.056024 69.9954,22.660344 0,0 8.2949,17.87004 17.6162,52.065265 8.7644,32.13171 10.7706,53.90224 10.7706,53.90224 -27.6771,2.82229 -49.2784,26.19504 -49.2811,54.61734 0,28.43052 21.604,51.80599 49.2893,54.61738 0,0 -1.7523,19.64423 -10.7788,53.92133 -8.4778,32.2054 -17.6271,52.08165 -17.6271,52.08165 -25.3817,-11.40933 -55.7829,-1.96526 -69.9899,22.65759 -14.2153,24.61194 -7.1896,55.66004 15.3725,71.94151 0,0 -11.3329,16.11772 -36.286,41.28919 -23.4437,23.65387 -41.2947,36.28056 -41.2947,36.28056 -16.2814,-22.56206 -47.3241,-29.57962 -71.936,-15.37531 -24.6201,14.21802 -34.0642,44.62194 -22.6549,69.99811 0,0 -17.8919,8.30589 -52.0898,17.62715 -32.1317,8.75897 -53.9159,10.77882 -53.9159,10.77882 -2.8141,-27.68536 -26.18955,-49.28939 -54.61463,-49.29212 -28.42641,0.004 -51.80049,21.60676 -54.62281,49.29212 0,0 -21.73776,-2.10719 -53.8954,-10.77882 -31.40156,-8.46692 -52.07073,-17.61621 -52.07073,-17.61621 11.40115,-25.38166 1.95979,-55.78286 -22.65761,-69.99537 -24.61329,-14.21526 -55.66412,-7.19223 -71.94286,15.37802 0,0 -17.79089,-12.7031 -41.30694,-36.29421 -22.96194,-23.03427 -36.29419,-41.30557 -36.29419,-41.30557 22.57163,-16.27602 29.59053,-47.3214 15.38209,-71.94151 -14.21522,-24.61467 -44.60963,-34.06146 -69.99127,-22.66034 0,0 -9.05103,-19.87898 -17.62305,-52.06527 -8.37002,-31.43024 -10.77881,-53.89951 -10.77881,-53.89951 27.68127,-2.82502 49.28937,-26.20049 49.28937,-54.62554 0,-28.42231 -21.60402,-51.80052 -49.28937,-54.61461 0,0 2.11129,-21.75689 10.77881,-53.91588 8.46418,-31.405665 17.62305,-52.089825 17.62305,-52.089825 25.38164,11.41204 55.77875,1.96796 69.994,-22.649441 14.21253,-24.620118 7.18952,-55.660014 -15.36982,-71.941517 0,0 12.69355,-17.779952 36.27508,-41.294646 23.03839,-22.966055 41.29193,-36.288751 41.29193,-36.288751 16.28421,22.564805 47.32957,29.590566 71.95109,15.378013 24.61328,-14.215223 34.05871,-44.610973 22.65076,-69.992653 0,0 19.89807,-9.05376 52.08436,-17.62713 31.42615,-8.36864 53.92136,-10.77878 53.92136,-10.77878 2.81141,27.68535 26.18548,49.28665 54.61734,49.28936 28.41959,-0.004 51.79505,-21.60128 54.61195,-49.28118 m 114.2269,509.14513 c -32.2327,55.64092 -92.4264,93.07058 -161.35728,93.07058 -102.93093,0 -186.3623,-83.44089 -186.3623,-186.365 0,-102.92411 83.43137,-186.362278 186.3623,-186.362278 45.69738,0 87.54878,16.445263 119.96988,43.745743 L 859.05477,214.33312 921.17554,321.93012 1261.7752,125.43047 C 1220.2595,2.750207 1104.1928,-85.554679 967.49112,-85.554679 c -171.54243,0 -310.60379,139.062731 -310.60379,310.603809 0,171.5438 139.06136,310.60654 310.60379,310.60654 114.92568,0 215.26768,-62.41282 268.98978,-155.18593 l -107.6325,-62.12619 z"
         style="display:inline;fill:url(#linearGradient1);fill-opacity:1;fill-rule:nonzero;stroke:none"
         id="path5990"
         inkscape:connector-curvature="0" /></g><g
       id="layer7"
       inkscape:label="GEAR_GREEN"
       style="display:none"
       transform="matrix(0.26458333,0,0,0.26458333,15.338209,119.85847)"><path
         inkscape:connector-curvature="0"
         id="path5926"
         style="fill:#068770;fill-opacity:1;fill-rule:nonzero;stroke:none"
         d="m 1014.6078,-190.80977 c 0,0 19.6442,1.75507 53.9213,10.78155 32.2109,8.47511 52.0653,17.62437 52.0653,17.62437 -11.3956,25.37893 -1.957,55.76921 22.6576,69.987184 24.6229,14.212526 55.671,7.192237 71.9442,-15.380734 0,0 16.1396,11.338348 41.3111,36.294188 23.6484,23.449162 36.2887,41.30832 36.2887,41.30832 -22.5702,16.27876 -29.5878,47.324115 -15.378,71.941503 14.2153,24.617404 44.6137,34.056024 69.9954,22.660344 0,0 8.2949,17.87004 17.6162,52.065265 8.7644,32.13171 10.7706,53.90224 10.7706,53.90224 -27.6771,2.82229 -49.2784,26.19504 -49.2811,54.61734 0,28.43052 21.604,51.80599 49.2893,54.61738 0,0 -1.7523,19.64423 -10.7788,53.92133 -8.4778,32.2054 -17.6271,52.08165 -17.6271,52.08165 -25.3817,-11.40933 -55.7829,-1.96526 -69.9899,22.65759 -14.2153,24.61194 -7.1896,55.66004 15.3725,71.94151 0,0 -11.3329,16.11772 -36.286,41.28919 -23.4437,23.65387 -41.2947,36.28056 -41.2947,36.28056 -16.2814,-22.56206 -47.3241,-29.57962 -71.936,-15.37531 -24.6201,14.21802 -34.0642,44.62194 -22.6549,69.99811 0,0 -17.8919,8.30589 -52.0898,17.62715 -32.1317,8.75897 -53.9159,10.77882 -53.9159,10.77882 -2.8141,-27.68536 -26.18955,-49.28939 -54.61463,-49.29212 -28.42641,0.004 -51.80049,21.60676 -54.62281,49.29212 0,0 -21.73776,-2.10719 -53.8954,-10.77882 -31.40156,-8.46692 -52.07073,-17.61621 -52.07073,-17.61621 11.40115,-25.38166 1.95979,-55.78286 -22.65761,-69.99537 -24.61329,-14.21526 -55.66412,-7.19223 -71.94286,15.37802 0,0 -17.79089,-12.7031 -41.30694,-36.29421 -22.96194,-23.03427 -36.29419,-41.30557 -36.29419,-41.30557 22.57163,-16.27602 29.59053,-47.3214 15.38209,-71.94151 -14.21522,-24.61467 -44.60963,-34.06146 -69.99127,-22.66034 0,0 -9.05103,-19.87898 -17.62305,-52.06527 -8.37002,-31.43024 -10.77881,-53.89951 -10.77881,-53.89951 27.68127,-2.82502 49.28937,-26.20049 49.28937,-54.62554 0,-28.42231 -21.60402,-51.80052 -49.28937,-54.61461 0,0 2.11129,-21.75689 10.77881,-53.91588 8.46418,-31.405665 17.62305,-52.089825 17.62305,-52.089825 25.38164,11.41204 55.77875,1.96796 69.994,-22.649441 14.21253,-24.620118 7.18952,-55.660014 -15.36982,-71.941517 0,0 12.69355,-17.779952 36.27508,-41.294646 23.03839,-22.966055 41.29193,-36.288751 41.29193,-36.288751 16.28421,22.564805 47.32957,29.590566 71.95109,15.378013 24.61328,-14.215223 34.05871,-44.610973 22.65076,-69.992653 0,0 19.89807,-9.05376 52.08436,-17.62713 31.42615,-8.36864 53.92136,-10.77878 53.92136,-10.77878 2.81141,27.68535 26.18548,49.28665 54.61734,49.28936 28.41959,-0.004 51.79505,-21.60128 54.61195,-49.28118 m 114.2269,509.14513 c -32.2327,55.64092 -92.4264,93.07058 -161.35728,93.07058 -102.93093,0 -186.3623,-83.44089 -186.3623,-186.365 0,-102.92411 83.43137,-186.362278 186.3623,-186.362278 45.69738,0 87.54878,16.445263 119.96988,43.745743 L 859.05477,214.33312 921.17554,321.93012 1261.7752,125.43047 C 1220.2595,2.750207 1104.1928,-85.554679 967.49112,-85.554679 c -171.54243,0 -310.60379,139.062731 -310.60379,310.603809 0,171.5438 139.06136,310.60654 310.60379,310.60654 114.92568,0 215.26768,-62.41282 268.98978,-155.18593 l -107.6325,-62.12619 z"
         inkscape:export-xdpi="55.410137"
         inkscape:export-ydpi="55.410137" /></g><g
       id="g4144"
       inkscape:groupmode="layer"
       inkscape:label="EVEZOR LOGO_08-27-16"
       transform="matrix(0.33072916,0,0,-0.33072916,15.338209,60.327062)"
       style="display:inline"><path
         d="m 820.2177,170.68876 c 0,0 23.95625,-2.14032 65.75738,-13.14817 39.28136,-10.33545 63.49392,-21.49302 63.49392,-21.49302 -13.89706,-30.94977 -2.38662,-68.010907 27.63109,-85.349807 30.02771,-17.33226 67.89111,-8.770977 87.73641,18.756911 0,0 19.6823,-13.827194 50.3791,-44.260989 28.8393,-28.5963967 44.2542,-50.375738 44.2542,-50.375738 -27.5245,-19.852049 -36.0824,-57.712046 -18.7535,-87.733097 17.3356,-30.02107 54.4068,-41.53152 85.3597,-27.63442 0,0 10.1159,-21.79263 21.4832,-63.4939 10.6883,-39.18481 13.1348,-65.73411 13.1348,-65.73411 -33.7524,-3.4418 -60.0954,-31.94501 -60.0986,-66.60618 0,-34.67118 26.3462,-63.17772 60.1085,-66.60621 0,0 -2.1368,-23.95625 -13.1447,-65.75739 -10.3389,-39.27468 -21.4964,-63.51388 -21.4964,-63.51388 -30.9531,13.91374 -68.0275,2.39662 -85.3531,-27.63107 -17.3355,-30.01443 -8.7677,-67.87776 18.7469,-87.73313 0,0 -13.8205,-19.65564 -44.251,-50.3524 -28.5897,-28.84604 -50.3591,-44.24436 -50.3591,-44.24436 -19.8553,27.51456 -57.712,36.07253 -87.72643,18.75027 -30.02436,-17.33894 -41.54151,-54.41672 -27.62776,-85.36312 0,0 -21.81928,-10.12908 -63.52388,-21.4964 -39.1848,-10.68163 -65.75073,-13.14485 -65.75073,-13.14485 -3.43183,33.76247 -31.93833,60.10871 -66.60288,60.11204 -34.66618,-0.004 -63.17102,-26.34957 -66.61285,-60.11204 0,0 -26.50934,2.56973 -65.72577,13.14485 -38.29439,10.32546 -63.50056,21.48306 -63.50056,21.48306 13.90375,30.95309 2.38997,68.02754 -27.6311,85.3598 -30.01605,17.33558 -67.88273,8.77096 -87.73476,-18.7536 0,0 -21.6961,15.49151 -50.37404,44.261 -28.00225,28.09044 -44.261,50.37239 -44.261,50.37239 27.52622,19.84872 36.08582,57.70875 18.75856,87.73311 -17.33556,30.01774 -54.40172,41.53817 -85.35478,27.63441 0,0 -11.03779,24.24255 -21.49143,63.49392 -10.20728,38.32937 -13.14479,65.73077 -13.14479,65.73077 33.75746,3.44514 60.10867,31.95165 60.10867,66.61618 0,34.66117 -26.34624,63.17105 -60.10867,66.60284 0,0 2.57469,26.53265 13.14479,65.75076 10.32213,38.29939 21.49143,63.52385 21.49143,63.52385 30.95306,-13.91706 68.02251,-2.39994 85.35812,27.62112 17.33225,30.024388 8.76766,67.877723 -18.74361,87.73311 0,0 15.47988,21.6827725 44.23767,50.359076 28.09546,28.007237 50.35577,44.254338 50.35577,44.254338 19.8587,-27.517898 57.71871,-36.085858 87.74478,-18.753567 30.01605,17.335557 41.53482,54.403343 27.62275,85.356453 0,0 24.26583,11.04112 63.5172,21.49639 38.32438,10.20561 65.75741,13.1448 65.75741,13.1448 3.42852,-33.76245 31.93335,-60.10536 66.60619,-60.10868 34.65784,0.004 63.16438,26.34289 66.59956,60.09869 m 139.30047,-620.90555 c -39.30798,-67.85443 -112.7146,-113.50013 -196.7762,-113.50013 -125.5249,0 -227.26996,101.75666 -227.26996,227.27325 0,125.51655 101.74506,227.26992 227.26996,227.26992 55.72818,0 106.76629,-20.05508 146.30394,-53.34819 l -278.54273,-160.8535 75.75665,-131.2152 415.36341,239.63252 C 1071.0112,-65.358796 929.46717,42.329543 762.75863,42.329543 c -209.19705,0 -378.78322,-169.587843 -378.78322,-378.783203 0,-209.19871 169.58617,-378.78655 378.78322,-378.78655 140.1526,0 262.52027,76.11281 328.03467,189.25017 z"
         style="fill:url(#linearGradient4182);fill-rule:nonzero;stroke:none;stroke-width:1.52438"
         id="path4150"
         inkscape:connector-curvature="0" /></g></g></svg>
