<?xml version="1.0" encoding="UTF-8" standalone="no"?>
<!-- Created with Inkscape (http://www.inkscape.org/) -->

<svg
   width="210mm"
   height="297mm"
   viewBox="0 0 210 297"
   version="1.1"
   id="svg1"
   xml:space="preserve"
   inkscape:version="1.3.2 (091e20e, 2023-11-25, custom)"
   sodipodi:docname="santa_logo.svg"
   xmlns:inkscape="http://www.inkscape.org/namespaces/inkscape"
   xmlns:sodipodi="http://sodipodi.sourceforge.net/DTD/sodipodi-0.dtd"
   xmlns="http://www.w3.org/2000/svg"
   xmlns:svg="http://www.w3.org/2000/svg"><sodipodi:namedview
     id="namedview1"
     pagecolor="#ffffff"
     bordercolor="#666666"
     borderopacity="1.0"
     inkscape:showpageshadow="2"
     inkscape:pageopacity="0.0"
     inkscape:pagecheckerboard="0"
     inkscape:deskcolor="#d1d1d1"
     inkscape:document-units="mm"
     inkscape:zoom="0.5946522"
     inkscape:cx="229.54594"
     inkscape:cy="670.98045"
     inkscape:window-width="1842"
     inkscape:window-height="1041"
     inkscape:window-x="1680"
     inkscape:window-y="0"
     inkscape:window-maximized="1"
     inkscape:current-layer="layer1" /><defs
     id="defs1" /><g
     inkscape:label="Layer 1"
     inkscape:groupmode="layer"
     id="layer1"><path
       id="path4"
       style="fill:#000000;stroke-width:0.569239"
       d="m 118.78688,280.1381 c -0.2376,-0.0568 -0.71887,-0.17548 -1.0695,-0.26374 -0.35063,-0.0883 -1.09949,-0.22596 -1.66412,-0.30604 -0.90742,-0.1287 -2.36598,-0.73377 -2.95075,-1.2241 -0.0933,-0.0783 -0.60689,-0.42889 -1.14134,-0.77925 -0.88204,-0.57823 -3.443,-3.04215 -4.61929,-4.44425 -0.25863,-0.30828 -0.89728,-1.37379 -1.41924,-2.36782 -0.52196,-0.99403 -1.04811,-1.88091 -1.16922,-1.97083 -0.12111,-0.0899 -0.37882,-0.13315 -0.57268,-0.0961 -0.34933,0.0668 -1.1129,0.71703 -1.1129,0.94773 0,0.0659 -0.13127,0.16159 -0.29169,0.2125 -0.16043,0.0509 -0.65181,0.43471 -1.09194,0.85287 -0.44013,0.41817 -0.96099,0.86871 -1.15748,1.00121 -0.51776,0.34914 -1.629347,0.51263 -3.935177,0.57875 -1.729377,0.0495 -2.40157,-0.005 -4.497693,-0.36879 -2.303312,-0.39919 -2.5101,-0.41253 -3.162832,-0.2041 -0.384122,0.12265 -0.789737,0.29407 -0.901355,0.38092 -0.111625,0.0868 -0.348839,0.17927 -0.527144,0.20539 -0.178296,0.0262 -0.399431,0.14789 -0.491395,0.27059 -0.09198,0.1227 -0.261406,0.22614 -0.376529,0.22986 -0.447739,0.0144 -1.64006,1.28498 -1.910368,2.03571 -0.584176,1.6224 -0.785656,1.73126 -2.360849,1.2757 -1.386279,-0.40093 -1.651335,-0.69676 -2.053116,-2.29135 l -0.329489,-1.30769 0.461523,-0.46152 c 0.253838,-0.25383 0.508757,-0.67657 0.566487,-0.93942 0.05773,-0.26284 0.33426,-0.71398 0.614519,-1.00255 0.280252,-0.28858 0.509559,-0.64499 0.509559,-0.79204 0,-0.14705 0.09124,-0.35861 0.202755,-0.47012 0.111514,-0.11151 0.326001,-0.47217 0.476647,-0.80147 0.15064,-0.32928 0.410475,-0.75163 0.577416,-0.93851 0.366153,-0.4099 0.539197,-1.3667 0.649371,-3.59045 0.113696,-2.29505 -0.08377,-3.17502 -0.915806,-4.08112 -0.60266,-0.65629 -0.693765,-0.70185 -1.42489,-0.71261 -0.438244,-0.006 -0.82831,0.0646 -0.888686,0.16181 -0.05918,0.0953 -0.508211,0.35643 -0.997833,0.58028 -1.122478,0.51318 -2.761632,2.18771 -3.477626,3.55271 -0.752152,1.4339 -1.255054,3.95508 -1.078778,5.40816 0.105619,0.87062 0.295264,1.59122 0.45583,1.73202 0.09446,0.0829 0.303266,0.40036 0.464017,0.70558 0.237447,0.45087 0.26565,0.66277 0.150351,1.12959 -0.206211,0.83493 -0.874163,1.15168 -2.175174,1.0315 -2.025635,-0.18714 -2.494312,-0.31285 -3.47488,-0.93204 -0.532486,-0.33625 -1.340915,-0.79827 -1.796513,-1.02673 -0.81211,-0.40722 -3.011792,-2.47687 -3.576048,-3.36467 -0.141522,-0.22267 -0.343651,-0.45903 -0.449182,-0.52528 -0.10554,-0.0663 -0.19189,-0.18325 -0.19189,-0.26001 0,-0.0768 -0.304983,-0.59433 -0.677743,-1.15013 -0.37276,-0.55581 -0.677759,-1.06856 -0.677759,-1.13944 0,-0.0709 -0.128931,-0.26728 -0.286514,-0.43643 -0.157583,-0.16915 -0.365327,-0.62379 -0.461653,-1.01032 -0.09632,-0.38653 -0.270163,-0.84952 -0.386312,-1.02886 -0.261278,-0.40341 -0.907795,-3.24716 -1.038707,-4.5688 -0.221167,-2.23283 -0.785118,-4.28347 -1.523309,-5.53909 -1.010232,-1.71835 -1.610678,-2.19743 -3.306927,-2.63847 -0.497008,-0.12923 -1.47975,-0.40292 -2.18386,-0.60819 -0.704102,-0.20528 -1.952099,-0.49126 -2.773311,-0.63552 -1.18427,-0.20804 -1.791766,-0.41632 -2.936919,-1.00688 -1.457336,-0.75158 -2.853534,-1.57156 -3.394736,-1.99371 -0.16181,-0.12622 -0.365134,-0.22907 -0.451828,-0.22857 -0.0867,5.1e-4 -0.462614,-0.29949 -0.835383,-0.66667 -0.372761,-0.36718 -1.08764,-1.06228 -1.588609,-1.54468 -1.302279,-1.25401 -2.929733,-3.58751 -2.929733,-4.20074 0,-0.0897 -0.175354,-0.32752 -0.38968,-0.52834 -0.214319,-0.20082 -0.486471,-0.59618 -0.60477,-0.87858 -0.193452,-0.46179 -0.18739,-0.56684 0.06023,-1.04402 0.17998,-0.34681 0.45465,-0.59536 0.793041,-0.71764 0.631071,-0.22802 2.0463,-0.26667 2.174421,-0.0593 0.144055,0.23307 0.961466,0.17798 1.42542,-0.0961 0.229684,-0.13568 0.646797,-0.62705 0.926905,-1.09193 0.505284,-0.83859 0.509141,-0.85903 0.489751,-2.59544 -0.01765,-1.58194 -0.133767,-2.32641 -0.502165,-3.21997 -0.06833,-0.16567 -0.238279,-0.6401 -0.377724,-1.05428 -0.139452,-0.41419 -0.314164,-0.8886 -0.388245,-1.05429 -0.0741,-0.16567 -0.237197,-0.75834 -0.36248,-1.31706 -0.125282,-0.5587 -0.335615,-1.27034 -0.467401,-1.58141 -0.387523,-0.91469 -1.120591,-3.23981 -1.120591,-3.55423 0,-0.15941 -0.07314,-0.56882 -0.162531,-0.90977 -0.328261,-1.25201 -0.42247,-1.69767 -0.5927,-2.80378 -0.09561,-0.62128 -0.277389,-1.5441 -0.403946,-2.05073 -0.172323,-0.68986 -0.207639,-1.35169 -0.140607,-2.63571 0.126566,-2.4246 0.32321,-4.02766 0.579813,-4.72677 0.121618,-0.33134 0.301823,-1.14464 0.400458,-1.80734 0.240525,-1.6161 0.626004,-3.26807 0.819738,-3.513 0.08681,-0.10974 0.205713,-0.925 0.264229,-1.81169 0.08346,-1.26486 0.186437,-1.77343 0.477987,-2.36084 0.662257,-1.33428 0.797692,-1.53786 1.49064,-2.24073 l 0.682787,-0.69257 1.612089,-0.0672 c 1.032924,-0.0431 1.780361,-0.15113 2.080485,-0.30085 0.257622,-0.12852 0.594456,-0.23368 0.748528,-0.23368 0.15407,0 0.397811,-0.0589 0.541658,-0.13101 0.143839,-0.0721 0.56651,-0.27511 0.939278,-0.45119 0.752368,-0.35541 1.409518,-0.728 1.917111,-1.08694 0.359377,-0.25414 1.095114,-1.26215 1.095114,-1.50037 0,-0.0791 0.05517,-0.14393 0.122716,-0.14393 0.182492,0 0.630343,-1.01054 0.630343,-1.42233 0,-0.19682 0.194976,-0.95698 0.433288,-1.68926 0.238319,-0.73229 0.477265,-1.53508 0.530993,-1.78397 0.117528,-0.54443 -0.156854,-3.89013 -0.349176,-4.25759 -0.07482,-0.14303 -0.280773,-0.83614 -0.457595,-1.54024 -0.17682,-0.70411 -0.392246,-1.51742 -0.478724,-1.80734 -0.08648,-0.28993 -0.227269,-0.86602 -0.312865,-1.2802 -0.0856,-0.41419 -0.21541,-0.8886 -0.288488,-1.05428 -0.277774,-0.62981 -0.438292,-1.99776 -0.353442,-3.01222 0.119076,-1.42365 0.178842,-1.66763 0.483031,-1.97181 0.216195,-0.21621 0.270773,-0.62208 0.3188,-2.37106 0.03633,-1.32336 -0.01075,-2.42341 -0.126261,-2.95017 -0.271728,-1.23904 -0.632547,-2.42139 -0.738921,-2.42139 -0.05133,0 -0.185297,-0.22027 -0.297838,-0.48948 -0.688945,-1.64815 -0.900939,-1.94159 -2.85598,-3.95355 -0.804927,-0.82837 -1.661656,-1.81111 -1.90384,-2.18387 -0.242186,-0.37276 -0.762625,-1.05851 -1.156533,-1.52389 -0.393897,-0.46537 -0.803587,-1.12618 -0.910416,-1.46846 -0.106823,-0.34228 -0.238152,-0.62231 -0.291832,-0.62231 -0.05365,0 -0.138834,-0.16422 -0.189202,-0.36493 -0.05036,-0.20071 -0.25618,-0.56052 -0.457339,-0.79958 -0.693436,-0.8241 -1.14281,-2.1113 -1.273682,-3.64839 -0.101187,-1.18845 -0.08316,-1.48314 0.104071,-1.70104 0.397091,-0.46217 1.393265,-0.27987 2.805165,0.51336 0.590037,0.3315 1.255583,0.44987 2.947222,0.52418 0.952613,0.0419 2.330112,0.10921 3.061101,0.14967 0.916047,0.0507 1.397314,0.0169 1.54865,-0.10865 0.259988,-0.21577 1.23196,0.0488 1.674358,0.45563 0.147118,0.13532 0.43575,0.36275 0.641416,0.50541 0.331037,0.22963 0.37636,0.37589 0.39511,1.27493 0.0117,0.55855 0.09856,1.35442 0.19314,1.7686 0.09458,0.41418 0.235817,1.15874 0.313876,1.65458 0.07803,0.49585 0.212571,0.92508 0.298935,0.95387 0.08637,0.0288 0.159285,0.1653 0.162035,0.30337 0.0032,0.13805 0.205473,0.5221 0.450497,0.85346 0.245024,0.33134 0.521002,0.79026 0.613293,1.0198 0.09228,0.22955 0.296203,0.48609 0.453161,0.57009 0.156958,0.084 0.285383,0.2471 0.285383,0.36243 0,0.11532 0.169437,0.34295 0.376522,0.50585 0.207101,0.16291 0.376529,0.35691 0.376529,0.43114 0,0.13712 2.953557,3.13863 3.297921,3.35145 0.191409,0.11831 0.125564,0.95614 -0.12505,1.59103 -0.06536,0.16566 -0.203933,0.57232 -0.307878,0.90366 -0.103926,0.33135 -0.349728,0.92833 -0.546205,1.32664 -0.299825,0.6078 -0.640013,2.40727 -0.674575,3.56822 -0.0162,0.54336 0.286699,2.37329 0.437282,2.64195 0.09093,0.16224 0.342809,0.90495 0.559742,1.65049 0.487778,1.67634 0.948564,2.89482 1.281502,3.38874 0.139588,0.20709 0.501362,0.74929 0.80393,1.20489 0.487731,0.73443 1.030167,1.51952 1.86648,2.70147 0.766595,1.08344 3.33319,3.6827 4.509713,4.56712 1.577816,1.18609 3.233833,2.21993 3.555921,2.21993 0.08399,0 0.259714,0.0968 0.39049,0.21512 0.130776,0.11832 0.778391,0.35997 1.439149,0.53703 0.660758,0.17704 1.270732,0.37653 1.355502,0.4433 0.324525,0.2556 2.812994,1.08322 3.942429,1.31116 1.437063,0.29006 6.326874,0.37542 6.496335,0.11341 0.05918,-0.0915 0.58197,-0.24793 1.161823,-0.34772 1.661551,-0.28594 1.732031,-0.30773 1.732031,-0.53555 0,-0.17445 0.265216,-0.20726 1.393441,-0.17235 0.766385,0.0238 1.528866,0.11833 1.694372,0.21028 0.165523,0.0919 0.673702,0.28325 1.129299,0.42511 0.455606,0.14185 1.192241,0.53518 1.636989,0.87405 0.44474,0.33888 1.122499,0.83308 1.506117,1.09822 0.383609,0.26516 0.791477,0.56454 0.906359,0.66529 0.295752,0.2594 1.841028,0.87821 2.200908,0.88137 0.16566,0.002 0.49534,-0.0986 0.73261,-0.22234 0.23727,-0.12375 0.58087,-0.22499 0.76355,-0.22499 0.18269,0 0.48047,-0.17059 0.66177,-0.37909 0.25087,-0.28853 0.41952,-0.35652 0.706,-0.28461 0.23407,0.0588 0.51636,0.003 0.74653,-0.14806 0.20358,-0.13338 0.59932,-0.24253 0.87943,-0.24253 0.28012,0 0.71862,-0.10441 0.97445,-0.23203 0.39817,-0.19865 0.69873,-0.20829 2.08775,-0.067 2.66154,0.27073 3.09883,0.38314 5.32517,1.36876 0.70411,0.31172 1.75461,0.67874 2.33448,0.8156 0.57985,0.13686 1.1986,0.31793 1.375,0.40239 0.21575,0.10323 1.10316,0.10622 2.711,0.009 2.18019,-0.13185 2.48925,-0.18685 3.51633,-0.62572 0.61933,-0.26464 1.2293,-0.57376 1.3555,-0.68691 0.12619,-0.11317 0.53444,-0.32485 0.9072,-0.47042 0.8161,-0.31868 1.57563,-0.86795 2.29307,-1.65826 0.14289,-0.15741 0.59359,-0.55731 1.00153,-0.88865 0.40796,-0.33134 0.8609,-0.81398 1.00653,-1.07251 0.15762,-0.27981 0.57522,-0.62782 1.03172,-0.85979 0.4218,-0.21435 0.8522,-0.52807 0.95645,-0.69717 0.10424,-0.1691 0.263,-0.30745 0.35277,-0.30745 0.0898,0 0.33556,-0.13555 0.54618,-0.30122 0.21061,-0.16568 0.49884,-0.30123 0.64051,-0.30123 0.14166,0 0.37113,-0.12549 0.50994,-0.27885 0.20973,-0.23177 0.44996,-0.2737 1.42233,-0.24824 0.64348,0.0168 1.31538,0.10843 1.49311,0.20355 0.17772,0.0951 0.5351,0.17293 0.79418,0.17293 0.25907,0 1.05988,0.16174 1.77958,0.35942 0.71969,0.19768 1.85073,0.43636 2.51343,0.53038 1.66382,0.23604 6.92563,0.0375 7.68117,-0.28988 0.27728,-0.12015 0.75329,-0.23778 2.42715,-0.5998 0.3409,-0.0737 0.92766,-0.30592 1.3039,-0.51597 0.37624,-0.21005 1.01228,-0.4917 1.41343,-0.62587 0.66517,-0.22249 1.29518,-0.58225 2.98007,-1.70175 1.24472,-0.82704 2.64415,-2.36824 2.64415,-2.91201 0,-0.15122 0.15881,-0.52776 0.35292,-0.83675 0.27939,-0.44477 0.37411,-0.86724 0.45471,-2.02805 0.056,-0.80642 0.16829,-1.64109 0.24954,-1.85479 0.0812,-0.21371 0.15071,-0.67218 0.15438,-1.01884 0.003,-0.34666 0.0959,-0.96918 0.20487,-1.38336 l 0.19825,-0.75305 0.80046,-0.11552 c 0.70401,-0.10157 0.86625,-0.072 1.34638,0.24576 0.30026,0.1987 0.89416,0.53774 1.31978,0.75342 0.74138,0.37568 1.54561,1.20138 1.54561,1.58689 0,0.10063 0.0606,0.14551 0.13455,0.0998 0.074,-0.0457 0.17628,0.0831 0.22727,0.28633 0.051,0.20322 0.36544,0.58864 0.69874,0.8565 0.34322,0.27581 0.57258,0.5741 0.52891,0.6879 -0.0424,0.1105 0.0536,0.31279 0.21328,0.44953 0.15971,0.13675 0.25332,0.30859 0.20804,0.38186 -0.10137,0.16396 0.3792,0.71671 0.62304,0.71671 0.0975,0 0.30352,0.52525 0.45772,1.16724 0.15418,0.64198 0.32666,1.23501 0.38328,1.31784 0.19162,0.28041 0.61348,2.21104 0.53041,2.42751 -0.0454,0.11827 0.0385,0.33601 0.18632,0.48387 0.18677,0.18675 0.26885,0.50005 0.26885,1.02607 0,0.57118 0.0811,0.84429 0.33018,1.11164 0.18161,0.19493 0.33019,0.50877 0.33019,0.69743 0,0.30607 0.24884,1.00661 0.61801,1.73982 0.0711,0.14135 0.173,0.52977 0.22632,0.86317 0.0533,0.3334 0.18334,0.6779 0.28896,0.76556 0.10562,0.0876 0.34815,0.5464 0.53896,1.01946 0.1908,0.47306 0.43481,0.94966 0.54223,1.05911 0.17324,0.17655 0.26007,0.50167 0.21603,0.80895 -0.008,0.0573 0.15459,0.23767 0.36182,0.40066 0.20722,0.163 0.44976,0.50578 0.53898,0.76172 0.0892,0.25595 0.21582,0.46536 0.28133,0.46536 0.0655,0 0.16503,0.24473 0.22115,0.54383 0.0621,0.33072 0.20434,0.57061 0.36311,0.61212 0.27867,0.0729 0.69494,0.62932 0.56671,0.75754 -0.0423,0.0423 0.0886,0.25523 0.29079,0.47328 0.20218,0.21805 0.36761,0.47286 0.36761,0.56624 0,0.0934 0.25417,0.34217 0.56479,0.55287 0.78419,0.53188 1.35203,1.09744 1.46766,1.46177 0.0539,0.16977 0.171,0.26288 0.26083,0.20735 0.0981,-0.0606 0.11952,-0.0303 0.0537,0.0762 -0.38562,0.62395 3.82753,3.72635 5.65822,4.16649 0.55062,0.13237 1.0278,0.61197 1.05033,1.05565 0.0575,1.1334 0.04,1.31904 -0.13179,1.38493 -0.10354,0.0398 -0.18826,0.16347 -0.18826,0.27498 0,0.1115 -0.22732,0.31061 -0.50516,0.44246 -0.27786,0.13185 -0.98902,0.745 -1.58036,1.36256 -0.59135,0.61757 -1.16356,1.12286 -1.27157,1.12286 -0.10802,0 -0.64774,0.29644 -1.19939,0.65876 -1.34919,0.88614 -1.98188,1.11815 -3.52859,1.29391 -1.66347,0.18901 -1.84667,0.34302 -1.49705,1.25847 0.14028,0.36732 0.38816,0.78832 0.55087,0.93557 0.1627,0.14722 0.2973,0.3758 0.29915,0.50792 0.002,0.13212 0.13589,0.40966 0.29787,0.61676 0.16199,0.20709 0.29604,0.46259 0.29787,0.56778 0.002,0.1052 0.17365,0.46101 0.38177,0.79071 0.20814,0.3297 0.33877,0.59946 0.2903,0.59946 -0.0484,0 0.0522,0.17857 0.22402,0.39683 0.17169,0.21827 0.31215,0.51411 0.31215,0.65743 0,0.14335 0.12998,0.42586 0.28884,0.6278 0.15886,0.20197 0.3354,0.61534 0.39229,0.91862 0.0568,0.30328 0.19801,0.62991 0.3136,0.72583 0.11559,0.096 0.21017,0.26906 0.21017,0.38474 0,0.11569 0.19312,0.57222 0.42914,1.01453 0.23603,0.4423 0.47922,1.10183 0.54045,1.46561 0.0612,0.36378 0.18066,1.06807 0.26541,1.56508 0.21969,1.28829 0.16734,2.85502 -0.12797,3.82979 -0.13982,0.46153 -0.24029,0.94739 -0.22324,1.07968 0.017,0.13228 -0.0731,0.32696 -0.20048,0.43262 -0.12732,0.10566 -0.23148,0.35777 -0.23148,0.56024 0,0.20248 -0.16158,0.58388 -0.35905,0.84757 -0.19747,0.26369 -0.40853,0.64888 -0.469,0.85598 -0.0605,0.20707 -0.24552,0.60035 -0.41119,0.87394 -0.16567,0.27356 -0.25947,0.53917 -0.20842,0.59021 0.0511,0.0511 -0.003,0.19998 -0.11942,0.33095 -0.11673,0.13098 -0.29274,0.54036 -0.39114,0.90974 -0.0985,0.36937 -0.26051,0.74213 -0.36025,0.82836 -0.0997,0.0862 -0.3061,0.52953 -0.45858,0.98514 -0.15249,0.45558 -0.33556,0.89273 -0.40682,0.97143 -0.18694,0.20643 -0.15925,1.37965 0.0489,2.0746 0.10776,0.35967 0.37302,0.74424 0.66916,0.97012 0.37819,0.28846 0.47874,0.46654 0.43881,0.77707 -0.0971,0.7549 -0.42028,1.22264 -1.0461,1.51396 -0.78387,0.36489 -2.1921,0.3024 -4.53283,-0.20112 -0.91121,-0.19602 -1.92782,-0.39548 -2.25917,-0.44325 -0.33135,-0.0478 -1.14465,-0.29068 -1.80733,-0.53981 -0.6627,-0.24913 -1.32112,-0.45321 -1.46317,-0.45351 -0.42116,-8e-4 -0.52185,0.43651 -0.49392,2.14566 0.0207,1.26639 -0.0176,1.61907 -0.17548,1.61907 -0.11104,0 -0.20191,0.13155 -0.20191,0.29233 0,0.16079 -0.0724,0.33708 -0.16088,0.39177 -0.0885,0.0547 -0.12194,0.20089 -0.0744,0.3249 0.0476,0.12401 -0.0142,0.52198 -0.13718,0.88437 -0.12304,0.36239 -0.1842,0.76182 -0.13593,0.8876 0.0494,0.12894 -0.0104,0.26632 -0.13691,0.31493 -0.12356,0.0474 -0.3056,0.4038 -0.40453,0.79198 -0.44192,1.73409 -0.54291,2.02814 -0.7199,2.09629 -0.10354,0.04 -0.18826,0.1363 -0.18826,0.21429 0,0.0779 -0.13556,0.42232 -0.30122,0.76522 -0.16567,0.34291 -0.30124,0.73799 -0.30124,0.87795 0,0.13998 -0.10167,0.33887 -0.2259,0.44199 -0.12426,0.10313 -0.22592,0.31475 -0.22592,0.47028 0,0.15553 -0.25934,0.54212 -0.5763,0.85907 -0.31696,0.31697 -0.61983,0.68973 -0.67302,0.82836 -0.0533,0.13865 -0.16137,0.25207 -0.24039,0.25207 -0.079,0 -0.22177,0.23669 -0.31725,0.52598 -0.0954,0.28929 -0.27667,0.58367 -0.40267,0.65418 -0.126,0.0705 -0.23952,0.3082 -0.25227,0.52818 -0.0128,0.22001 -0.0626,0.40006 -0.11087,0.40011 -0.0851,10e-5 -1.2864,2.33082 -1.51379,2.93702 -0.44804,1.19441 -0.36868,3.33348 0.14462,3.89888 0.15891,0.17504 0.2554,0.41081 0.21443,0.52393 -0.041,0.11313 0.018,0.2628 0.13087,0.33261 0.14527,0.0897 0.15842,0.17385 0.045,0.28732 -0.23855,0.23854 -0.0694,1.043 0.25594,1.21712 0.15593,0.0835 0.28351,0.25717 0.28351,0.38605 0,0.12889 0.23722,0.51146 0.52714,0.85018 0.28993,0.33871 0.52714,0.69966 0.52714,0.80209 0,0.10241 0.0847,0.2158 0.18826,0.25188 0.1244,0.0433 0.0478,0.20786 -0.22592,0.48491 -0.22779,0.23063 -0.41418,0.46963 -0.41418,0.53111 0,0.38434 -3.24641,0.72936 -4.21712,0.44818 -0.28992,-0.084 -0.95822,-0.22219 -1.4851,-0.30712 -0.52688,-0.0849 -1.37408,-0.32615 -1.88264,-0.53604 -0.50857,-0.2099 -1.04847,-0.40783 -1.19979,-0.43987 -0.1513,-0.0321 -0.59185,-0.24022 -0.97897,-0.46266 -0.38713,-0.22245 -0.9537,-0.52982 -1.25907,-0.68307 -0.30537,-0.15324 -0.59802,-0.34787 -0.65032,-0.4325 -0.0523,-0.0846 -0.34467,-0.28244 -0.64968,-0.43957 -1.59496,-0.8217 -3.15715,-3.04246 -3.94099,-5.60238 -0.0666,-0.21728 -0.22475,-0.55616 -0.35162,-0.75305 -0.37464,-0.58144 -0.85561,-2.183 -0.85561,-2.84909 0,-0.86943 -0.27745,-1.10683 -1.05037,-0.89871 -0.35698,0.0962 -0.60635,0.2538 -0.60635,0.38338 0,0.12107 -0.06,0.22013 -0.1335,0.22013 -0.0734,0 -0.17699,0.28984 -0.23011,0.64408 -0.0531,0.35427 -0.1984,0.84036 -0.32283,1.08021 -0.37582,0.72438 -0.16318,3.08256 0.38114,4.22699 0.28238,0.59372 0.41462,1.08671 0.3838,1.43081 -0.0259,0.28875 0.0149,0.77449 0.0909,1.07942 0.20055,0.80632 0.3069,3.14931 0.15183,3.34487 -0.0729,0.0919 -0.17916,0.48914 -0.23612,0.88261 -0.0569,0.39347 -0.15354,0.71539 -0.21465,0.71539 -0.11725,0 -0.47287,0.88045 -0.47287,1.17072 0,0.0937 -0.8092,0.99158 -1.79823,1.99529 -0.98904,1.00371 -1.81928,1.87109 -1.84499,1.92751 -0.0831,0.18235 -1.30419,1.08155 -1.46872,1.08155 -0.0878,0 -0.15945,0.0935 -0.15945,0.20765 0,0.1142 -0.20148,0.2911 -0.44771,0.3931 -0.24625,0.10198 -0.60569,0.33049 -0.79877,0.50775 -0.38924,0.35738 -0.89395,0.62704 -1.46452,0.78249 -0.20709,0.0564 -0.48349,0.19621 -0.61423,0.31063 -0.38226,0.33455 -1.07122,0.33222 -1.70701,-0.005 -0.85931,-0.45681 -0.97494,-0.71947 -0.61349,-1.39349 0.16448,-0.30668 0.427,-0.67726 0.58338,-0.8235 0.22412,-0.20958 0.26643,-0.39963 0.19969,-0.89716 -0.0466,-0.34719 -0.14907,-0.67231 -0.22778,-0.72249 -0.0787,-0.0502 -0.18988,-0.30693 -0.24705,-0.57053 -0.13585,-0.62629 -1.15088,-1.55488 -2.36869,-2.16695 -0.52469,-0.2637 -1.12612,-0.60091 -1.3365,-0.74934 -0.21041,-0.14842 -0.77374,-0.48456 -1.25184,-0.74695 -1.38136,-0.7581 -2.71854,-1.72233 -2.90495,-2.09473 -0.0944,-0.18855 -0.40567,-0.59056 -0.69177,-0.89337 -0.28612,-0.30281 -0.66881,-0.76777 -0.85045,-1.03324 -0.22673,-0.33139 -0.40725,-0.45314 -0.5759,-0.38842 -0.34474,0.13229 -1.08837,0.9762 -1.09934,1.24762 -0.005,0.12425 -0.21178,0.63257 -0.45943,1.12959 -0.24765,0.49702 -0.49254,1.16498 -0.54421,1.48438 -0.10931,0.67579 0.21012,3.04558 0.46986,3.4858 0.0977,0.16566 0.30029,0.69786 0.45009,1.18266 0.32856,1.06337 1.04196,1.88833 2.03528,2.35357 0.53288,0.24959 0.79956,0.49531 1.02996,0.949 l 0.31092,0.61221 -0.4466,0.64912 -0.44661,0.64911 -2.23594,-0.035 c -1.22977,-0.0192 -2.43034,-0.0815 -2.66793,-0.1383 z m 72.6557,-82.39533 c -1.55642,-0.13284 -2.76358,-0.55629 -3.45012,-1.2102 -0.19602,-0.18671 -0.62749,-0.52886 -0.95884,-0.76036 -0.33135,-0.2315 -0.78928,-0.63652 -1.01763,-0.90006 -0.22836,-0.26355 -0.82139,-0.93495 -1.31786,-1.492 -0.49645,-0.55705 -0.90264,-1.06941 -0.90264,-1.13858 0,-0.0692 -0.28805,-0.47236 -0.64011,-0.89599 -1.3841,-1.66553 -1.57828,-1.94371 -1.76275,-2.52521 -0.10512,-0.33134 -0.27562,-0.738 -0.37889,-0.90367 -0.15517,-0.24894 -0.9848,-2.04102 -2.75407,-5.94915 -0.13124,-0.28991 -0.38888,-0.83213 -0.57252,-1.20489 -0.18362,-0.37276 -0.38344,-0.84718 -0.44403,-1.05427 -0.0607,-0.20709 -0.19787,-0.47819 -0.30507,-0.60244 -0.10721,-0.12427 -0.5129,-1.02228 -0.90153,-1.99561 -0.38864,-0.97332 -0.76733,-1.76968 -0.84155,-1.76968 -0.0743,0 -0.13495,-0.0909 -0.13495,-0.20187 0,-0.11101 -0.20601,-0.61413 -0.45781,-1.11802 -0.43886,-0.87823 -1.01274,-1.5197 -5.08475,-5.68354 -0.56705,-0.57985 -1.29096,-1.2576 -1.60865,-1.50611 -0.31769,-0.24852 -0.86184,-0.70535 -1.20921,-1.01521 -0.34734,-0.30986 -0.94379,-0.70149 -1.32541,-0.8703 -0.38163,-0.16882 -0.73612,-0.37529 -0.78776,-0.45885 -0.0516,-0.0836 -0.41027,-0.30603 -0.79695,-0.49437 -0.38668,-0.18835 -0.8386,-0.41319 -1.00427,-0.49965 -1.03052,-0.53781 -2.32341,-1.10465 -2.51956,-1.10465 -0.51568,0 -0.62595,-0.42734 -0.61525,-2.38467 0.008,-1.45463 0.0682,-2.01507 0.25383,-2.35959 0.13389,-0.24851 0.24385,-0.7316 0.24435,-1.07353 5.2e-4,-0.34195 0.10032,-0.85957 0.22178,-1.15029 0.12148,-0.29073 0.35866,-1.2987 0.52708,-2.23992 0.16842,-0.94122 0.40492,-1.98242 0.52558,-2.31376 0.32389,-0.88946 0.31974,-5.75166 -0.005,-6.84803 -0.27221,-0.9166 -0.17865,-1.77781 0.2091,-1.92457 0.35847,-0.13568 0.63178,-0.43064 0.63178,-0.68182 0,-0.3832 0.53045,-0.71184 1.14898,-0.71184 0.32897,0 0.66251,0.0606 0.7412,0.13471 0.25692,0.24191 4.57458,0.49703 5.47268,0.32337 0.4462,-0.0863 1.13524,-0.15686 1.53121,-0.15686 0.41663,0 0.74475,-0.0744 0.7788,-0.17656 0.0332,-0.0999 0.47705,-0.2068 1.02264,-0.24626 0.53007,-0.0383 1.05629,-0.16223 1.16935,-0.27529 0.1179,-0.1179 0.52118,-0.20556 0.9457,-0.20556 0.71145,0 1.84491,-0.21082 2.47649,-0.46061 0.61856,-0.24466 1.16665,-0.24787 1.63059,-0.009 0.86254,0.44302 2.12631,1.34095 2.57972,1.83295 0.44074,0.47824 1.287,1.72758 1.287,1.90001 0,0.0492 0.22619,0.33983 0.50263,0.64583 0.27646,0.30599 0.59623,0.87336 0.71063,1.26079 0.11441,0.38745 0.25311,0.70445 0.30825,0.70445 0.22781,0 1.44953,3.70607 1.27819,3.87741 -0.0458,0.0458 0.15272,0.34448 0.44116,0.66375 0.28843,0.31927 0.52442,0.72114 0.52442,0.89304 0,0.28399 0.80235,2.05774 1.24845,2.75994 0.10033,0.15788 0.58901,0.70135 1.08602,1.20771 0.49702,0.50635 1.03923,1.09603 1.2049,1.31038 0.16567,0.21435 0.45907,0.47249 0.65201,0.57365 0.55161,0.28922 0.89671,0.59394 2.31405,2.04322 0.7291,0.74553 1.3258,1.43297 1.326,1.52765 1.9e-4,0.0947 0.10198,0.21116 0.22627,0.25884 0.12426,0.0477 0.22592,0.25426 0.22592,0.45906 0,0.2048 0.0631,0.41144 0.14048,0.45918 0.0773,0.0478 0.21681,0.47535 0.31012,0.95021 0.0933,0.47487 0.21457,0.96506 0.26948,1.08931 0.0549,0.12426 0.11568,0.56479 0.13504,0.97898 0.0398,0.84967 0.33113,4.09197 0.43996,4.89486 0.0393,0.28994 0.0872,0.83213 0.10653,1.20489 0.0193,0.37276 0.0784,0.74604 0.13142,0.82951 0.053,0.0835 0.14523,0.42234 0.20496,0.75306 0.0597,0.33071 0.1611,0.66908 0.22523,0.7519 0.0642,0.0829 0.23559,0.52338 0.381,0.97897 0.26816,0.84019 0.72795,1.63872 1.06287,1.84589 0.10126,0.0626 0.23115,0.32829 0.28871,0.59037 0.0575,0.26209 0.30007,0.74628 0.53891,1.07599 0.23882,0.3297 0.43424,0.69004 0.43424,0.80075 0,0.11072 0.22027,0.30752 0.48949,0.43733 0.60286,0.29067 1.19388,0.63065 2.04833,1.17827 0.46973,0.30104 0.85339,0.42157 1.3555,0.42583 1.02894,0.008 1.64075,-0.16631 1.72642,-0.49386 0.0827,-0.31632 0.6696,-0.58917 1.2673,-0.58917 0.42949,0 1.6978,0.67982 1.6978,0.91002 0,0.0794 -0.0735,0.14427 -0.16331,0.14427 -0.1119,0 -0.1306,0.34385 -0.0594,1.09193 0.1262,1.3261 0.10536,1.94729 -0.0712,2.12387 -0.0732,0.0732 -0.0974,0.35378 -0.0537,0.6234 0.0457,0.28186 0.008,0.53416 -0.0876,0.59356 -0.0919,0.0569 -0.16722,0.23491 -0.16722,0.39569 0,0.16078 -0.0677,0.29233 -0.1506,0.29233 -0.0829,0 -0.15213,0.0848 -0.15397,0.18826 -0.002,0.10355 -0.13588,0.3577 -0.29787,0.56479 -0.16198,0.20709 -0.29603,0.52484 -0.29787,0.70611 -0.002,0.18127 -0.20667,0.55219 -0.45519,0.82428 -0.2485,0.27208 -0.45183,0.61275 -0.45183,0.75706 0,0.14429 -0.13475,0.33447 -0.29945,0.4226 -0.16468,0.0882 -0.33885,0.31729 -0.38702,0.5092 -0.0481,0.19191 -0.32007,0.56822 -0.60422,0.83626 -0.28415,0.26802 -0.51665,0.57826 -0.51665,0.68939 0,0.11116 -0.19104,0.3937 -0.42455,0.62787 -0.2335,0.23417 -0.54628,0.61215 -0.69507,0.83995 -0.14878,0.2278 -0.40142,0.41418 -0.56142,0.41418 -0.16519,0 -0.40179,0.19428 -0.54748,0.44954 -0.1411,0.24724 -0.43753,0.51292 -0.65871,0.59041 -0.22118,0.0775 -0.52655,0.26489 -0.67861,0.41648 -0.40616,0.40493 -1.72661,1.25458 -1.94973,1.25458 -0.10591,0 -0.49382,0.20333 -0.86204,0.45182 -0.36821,0.24852 -0.77912,0.45184 -0.91313,0.45184 -0.13399,0 -0.73415,0.14223 -1.33366,0.31606 -2.17644,0.63106 -2.53226,0.67913 -4.06102,0.54864 z M 24.67466,197.45219 c -0.497009,-0.17267 -0.937554,-0.35554 -0.978973,-0.40638 -0.04146,-0.0509 -0.412976,-0.26187 -0.825688,-0.46896 -0.412703,-0.20709 -0.841147,-0.46125 -0.952076,-0.56479 -0.110928,-0.10355 -0.247686,-0.18834 -0.303892,-0.18843 -0.05622,-7e-5 -0.451732,-0.32202 -0.878942,-0.71539 -0.995661,-0.91686 -1.038466,-0.9474 -1.934265,-1.38088 -0.414179,-0.20042 -0.786947,-0.41123 -0.828366,-0.46847 -0.213949,-0.29568 -1.183419,-0.62155 -2.221886,-0.74685 -2.563892,-0.30936 -3.418016,-0.49223 -3.992417,-0.85483 -0.320932,-0.2026 -0.925701,-0.40888 -1.343946,-0.45843 -0.699803,-0.0829 -0.849111,-0.17901 -1.8724848,-1.20571 -0.6116252,-0.61362 -1.1120494,-1.17448 -1.1120494,-1.24638 0,-0.072 -0.094374,-0.22509 -0.2097242,-0.34044 -0.7515186,-0.75153 -1.443888,-3.17437 -1.1649032,-4.07645 0.081578,-0.26378 0.143165,-0.68293 0.136846,-0.93144 -0.022133,-0.87216 0.233404,-2.41617 0.5059737,-3.0569 0.151409,-0.35591 0.2619443,-0.69479 0.2456326,-0.75306 -0.016357,-0.0583 0.059821,-0.26766 0.1692276,-0.46531 0.1093804,-0.19766 0.3199147,-0.86738 0.4678424,-1.48827 0.2381279,-0.99951 0.2466597,-1.25723 0.074413,-2.24893 -0.1125875,-0.64838 -0.4203375,-1.57556 -0.7307805,-2.20171 -0.2949508,-0.59491 -0.6153945,-1.38665 -0.7120888,-1.75941 -0.096703,-0.37276 -0.2609257,-0.88109 -0.3649416,-1.12958 -0.1040238,-0.24852 -0.2360745,-0.89002 -0.2934513,-1.42558 -0.057337,-0.53555 -0.1501417,-1.04387 -0.2061311,-1.12959 -0.2968513,-0.45438 -0.4045478,-1.24205 -0.2519924,-1.84289 0.088379,-0.34805 0.2091544,-0.6813 0.2683915,-0.74054 0.059261,-0.0593 0.1077047,-0.2581 0.1077047,-0.44191 0,-0.39228 0.2787682,-0.97016 0.6443752,-1.33576 0.1427081,-0.14272 0.2592897,-0.48746 0.2592897,-0.76678 0,-0.27912 0.067756,-0.54939 0.1506072,-0.60057 0.082836,-0.0512 0.1506144,-0.31801 0.1506144,-0.59291 0,-0.54591 0.3196977,-0.92084 0.6704214,-0.78626 0.1372637,0.0526 0.3437476,-0.0851 0.5393173,-0.35968 0.1742875,-0.24476 0.3972108,-0.44502 0.4953799,-0.44502 0.098175,0 0.3704024,-0.20332 0.6049618,-0.45184 0.2688164,-0.28481 0.576526,-0.45183 0.8324237,-0.45183 0.2249042,0 0.8741542,-0.30183 1.4557002,-0.67673 0.577344,-0.37221 1.160421,-0.6772 1.295719,-0.67776 0.135307,-5.5e-4 0.277493,-0.12139 0.315969,-0.26852 0.08817,-0.33719 -0.01114,-3.97615 -0.111281,-4.07627 -0.04073,-0.0408 -0.07417,-0.42317 -0.07417,-0.84976 0,-0.67796 -0.0741,-1.22842 -0.373932,-2.77726 -0.219202,-1.13239 -0.586445,-2.42138 -0.689876,-2.42138 -0.06568,0 -0.160791,-0.38971 -0.211367,-0.86601 -0.095,-0.89469 -0.762264,-3.66359 -0.985404,-4.08908 -0.06952,-0.13255 -0.208601,-0.56467 -0.309073,-0.96028 -0.10046,-0.39561 -0.2393295,-0.75431 -0.3085912,-0.79711 -0.069282,-0.0428 -0.2234281,-0.29521 -0.3426001,-0.56091 -0.1191719,-0.2657 -0.4598631,-1.01438 -0.7570842,-1.66375 -0.2972273,-0.64937 -0.54254,-1.25934 -0.5451385,-1.3555 -0.00322,-0.0962 -0.2059221,-0.57977 -0.4518361,-1.07468 -0.2459057,-0.4949 -0.4475229,-1.00322 -0.4480277,-1.12958 -5.13e-4,-0.12636 -0.107216,-0.43308 -0.2371329,-0.68159 -0.3141964,-0.60105 -0.6701565,-1.89948 -0.8257836,-3.01222 -0.069526,-0.49702 -0.2991207,-1.39377 -0.5102398,-1.99277 -0.211127,-0.59901 -0.3838666,-1.24626 -0.3838666,-1.43834 0,-0.19209 -0.058139,-0.41362 -0.1292599,-0.49232 -0.071129,-0.0786 -0.2167886,-0.58361 -0.3237635,-1.12205 -0.1069829,-0.53844 -0.2407656,-1.04675 -0.2973004,-1.12959 -0.056535,-0.0829 -0.1882565,-0.55726 -0.2927294,-1.05428 -0.104465,-0.49701 -0.2852798,-1.08356 -0.4018054,-1.30343 -0.1165256,-0.21987 -0.2118649,-0.57128 -0.2118649,-0.7809 0,-0.20963 -0.076262,-0.57194 -0.1693875,-0.80512 -0.093166,-0.2332 -0.2979339,-1.20341 -0.4550443,-2.15603 -0.1570981,-0.95261 -0.3524676,-2.13867 -0.4341422,-2.6357 -0.081683,-0.49701 -0.2008706,-1.27642 -0.2648792,-1.73203 -0.063992,-0.45559 -0.1744155,-0.92156 -0.2453685,-1.03548 -0.070969,-0.11392 -0.1496527,-1.70663 -0.1749048,-3.53936 -0.02526,-1.83274 -0.1007281,-4.61997 -0.1677196,-6.19386 -0.1620982,-3.808419 -0.1212891,-6.656522 0.099196,-6.922185 0.095628,-0.115229 0.1590509,-0.299241 0.1409437,-0.408934 -0.018123,-0.109693 0.00994,-0.301101 0.062389,-0.425354 0.052445,-0.124254 0.1631888,-0.869786 0.2461705,-1.656726 0.2772206,-2.628966 0.612748,-5.041038 0.7625931,-5.482137 0.081586,-0.240157 0.1483454,-0.652456 0.1483454,-0.91622 0,-0.263753 0.041138,-0.520745 0.091522,-0.571085 0.05028,-0.05037 0.2879821,-0.688546 0.5281063,-1.418251 0.2401322,-0.729704 0.5260053,-1.496174 0.6352896,-1.703263 0.1092925,-0.20709 0.2900752,-0.681516 0.4017494,-1.054277 0.111674,-0.372762 0.2590331,-0.742141 0.3274682,-0.820833 0.068403,-0.0787 0.1244165,-0.256778 0.1244165,-0.395741 0,-0.138963 0.097632,-0.333688 0.2169649,-0.432725 0.1193323,-0.09903 0.1805822,-0.274869 0.1361243,-0.390743 -0.08226,-0.214357 0.2502683,-1.122796 0.4109872,-1.122796 0.048436,0 0.2456734,-0.336426 0.4382608,-0.747611 0.1925942,-0.411184 0.3972503,-0.718505 0.4548106,-0.682933 0.057578,0.03558 0.1105519,-0.143136 0.1177771,-0.397113 0.00717,-0.253984 0.1133986,-0.573583 0.2359376,-0.710223 0.1225567,-0.136635 0.2709984,-0.507996 0.3298901,-0.825243 0.058866,-0.317254 0.2001654,-0.612548 0.3139648,-0.656214 0.1137912,-0.04366 0.2090503,-0.224639 0.2116882,-0.402156 0.00561,-0.374925 0.3278047,-0.849903 0.5766059,-0.849903 0.094405,0 0.1716568,-0.127248 0.1716568,-0.282781 0,-0.155528 0.1016649,-0.367155 0.2259227,-0.470272 0.1242474,-0.103129 0.2259134,-0.306575 0.2259134,-0.452118 0,-0.145538 0.2541581,-0.541056 0.5647943,-0.878929 0.5365659,-0.583613 0.8947479,-1.029624 2.0758339,-2.584849 0.283083,-0.372761 0.556671,-0.868699 0.607961,-1.102076 0.119524,-0.543885 0.446696,-1.176885 0.553222,-1.070362 0.04523,0.0452 0.371485,-0.193041 0.725088,-0.529417 0.353602,-0.336375 0.66654,-0.611591 0.695408,-0.611591 0.243035,0 1.909791,-1.325644 2.01513,-1.602721 0.08871,-0.233321 0.255809,-0.355229 0.48692,-0.355229 0.193517,0 0.48324,-0.122238 0.643822,-0.271647 0.377788,-0.351499 1.245295,-0.78263 1.574769,-0.78263 0.141648,0 0.419278,-0.160286 0.616957,-0.356196 0.197679,-0.195909 0.527537,-0.408765 0.733027,-0.473009 0.20549,-0.06424 0.544369,-0.242724 0.753059,-0.396619 0.330314,-0.243576 1.490567,-0.742196 2.299735,-0.988313 0.144961,-0.04406 0.263572,-0.140032 0.263572,-0.213208 0,-0.07318 0.118602,-0.137552 0.263564,-0.143056 0.144969,-0.0057 0.602443,-0.208541 1.01663,-0.451196 0.414179,-0.242655 0.854717,-0.482664 0.978972,-0.533361 0.753348,-0.307361 1.910272,-0.897167 2.069531,-1.055057 0.102776,-0.101904 0.441661,-0.2681 0.753059,-0.369322 0.31139,-0.101229 0.620358,-0.276127 0.686604,-0.388666 0.06624,-0.112538 0.218737,-0.204612 0.338879,-0.204612 0.120135,0 0.218432,-0.06 0.218432,-0.133333 0,-0.07333 0.457482,-0.415392 1.016623,-0.760134 0.559148,-0.344743 1.186146,-0.759816 1.393335,-0.922379 0.207199,-0.162569 0.545845,-0.328149 0.752562,-0.367957 0.206716,-0.03979 0.398661,-0.140829 0.426552,-0.224484 0.02791,-0.08367 0.146718,-0.152107 0.264062,-0.152107 0.117351,0 0.213372,-0.06014 0.213372,-0.133663 0,-0.07352 0.440537,-0.320897 0.978973,-0.549738 0.538434,-0.228834 0.978972,-0.466315 0.978972,-0.52773 0,-0.06142 0.257999,-0.214893 0.573318,-0.34106 0.315327,-0.126166 0.660053,-0.333904 0.766065,-0.461636 0.106004,-0.127731 0.746034,-0.503811 1.422277,-0.835728 0.676243,-0.331913 1.531722,-0.876989 1.901073,-1.211268 0.369337,-0.334281 0.809875,-0.650333 0.978974,-0.702345 0.303394,-0.09331 0.517312,-0.257865 1.199169,-0.922407 0.191231,-0.18638 0.415189,-0.338874 0.497681,-0.338874 0.08247,0 0.40256,-0.17141 0.711271,-0.380913 0.308719,-0.209496 0.640109,-0.395882 0.736419,-0.414179 0.09632,-0.01833 0.20901,-0.06716 0.250429,-0.108575 0.189379,-0.189381 1.345566,-1.054278 1.409349,-1.054278 0.0393,0 0.357516,-0.266699 0.707077,-0.592669 0.34957,-0.325964 0.829682,-0.673063 1.06691,-0.771325 0.237238,-0.09827 0.431332,-0.231521 0.431332,-0.29613 0,-0.0646 0.253973,-0.26731 0.564377,-0.450451 0.31042,-0.183147 0.700124,-0.463586 0.866023,-0.623196 0.48081,-0.462597 2.051088,-1.693316 2.74907,-2.15461 0.352047,-0.232672 0.640094,-0.481811 0.640094,-0.553637 0,-0.07184 0.08602,-0.130602 0.191151,-0.130602 0.27382,0 3.204139,-2.230753 4.13045,-3.14437 0.430232,-0.42434 0.854162,-0.771519 0.942076,-0.771519 0.200678,0 2.174998,-1.704952 3.481359,-3.006376 0.543704,-0.541653 1.289224,-1.187957 1.656715,-1.436236 0.3675,-0.248274 0.702065,-0.494572 0.743484,-0.547329 0.04146,-0.05277 0.576445,-0.474985 1.188937,-0.938284 1.067246,-0.80726 1.809038,-1.418397 3.315997,-2.731922 0.380137,-0.331349 0.800619,-0.670222 0.93441,-0.753058 1.049878,-0.650031 1.994721,-1.369466 2.725141,-2.075015 0.839432,-0.810853 2.644782,-2.106214 3.219984,-2.310373 0.158346,-0.05618 0.491227,-0.251825 0.739739,-0.434716 0.248504,-0.182885 0.756594,-0.487759 1.129074,-0.677486 0.372479,-0.189734 0.745243,-0.426588 0.828369,-0.526354 0.08311,-0.09976 0.557769,-0.337951 1.054785,-0.5293 0.497017,-0.191351 1.005332,-0.429122 1.129579,-0.528386 0.31455,-0.251274 1.949726,-0.976075 2.202064,-0.976075 0.114248,0 0.207719,-0.06102 0.207719,-0.135588 0,-0.07458 0.355815,-0.218809 0.790716,-0.320521 1.238783,-0.289726 3.162752,-0.889943 3.57701,-1.115915 0.207094,-0.112959 0.68152,-0.282724 1.054281,-0.377245 0.372767,-0.09452 0.813297,-0.230816 0.97898,-0.302875 0.165667,-0.07206 0.673982,-0.199542 1.12958,-0.283294 0.455597,-0.08375 1.031689,-0.23616 1.280193,-0.338686 0.248513,-0.102517 0.541579,-0.171416 0.651273,-0.153086 0.109684,0.01833 0.279128,-0.03114 0.376528,-0.109937 0.0974,-0.0788 0.515966,-0.181872 0.930145,-0.229068 0.414187,-0.04719 0.956383,-0.121322 1.204894,-0.164726 1.918981,-0.335197 9.651336,-0.4014 12.350126,-0.105743 1.76336,0.193177 3.21595,0.45138 3.55241,0.631447 0.1476,0.07899 0.46106,0.143625 0.69659,0.143625 0.23552,0 0.5619,0.09252 0.72531,0.205626 0.16338,0.113097 0.46651,0.255674 0.6736,0.316832 0.70372,0.20783 3.3079,1.437394 3.9912,1.884439 0.24851,0.162587 0.68905,0.433785 0.97898,0.60266 0.83376,0.485647 1.12401,0.673165 1.20488,0.778441 0.0414,0.0539 0.43416,0.339414 0.87274,0.63444 0.4386,0.295026 1.1543,0.877005 1.59048,1.293284 0.43616,0.416279 1.12782,0.976684 1.53704,1.245342 0.4092,0.268654 2.30282,2.050048 4.20806,3.958657 5.07876,5.087742 7.78334,7.41616 11.93632,10.276143 0.86996,0.599096 1.94026,1.378512 2.37847,1.732031 1.76473,1.423691 4.39181,2.961828 5.45904,3.196229 0.26396,0.05797 0.51859,0.167971 0.56586,0.244437 0.0472,0.07646 0.18598,0.13902 0.30829,0.13902 0.1223,0 0.85782,0.304988 1.63449,0.677754 0.77665,0.372759 1.4838,0.677746 1.57142,0.677746 0.0877,0 0.41557,0.129479 0.72876,0.287734 0.31319,0.158248 0.97608,0.467829 1.4731,0.687954 0.49702,0.220125 1.07311,0.489944 1.2802,0.599597 0.20709,0.109652 0.84155,0.444951 1.40993,0.745112 1.11225,0.587387 1.49482,0.852818 2.43065,1.686394 2.21599,1.973838 2.92787,2.673075 3.7409,3.674384 0.50445,0.621274 0.96052,1.163474 1.01346,1.204892 0.25779,0.201626 2.28812,2.97291 3.25512,4.443033 0.59935,0.9112 1.19427,1.764068 1.32204,1.895272 0.12776,0.131204 0.2323,0.288434 0.2323,0.349393 0,0.06096 0.22027,0.42804 0.48949,0.815726 0.77807,1.120463 2.22152,3.860542 2.22152,4.217086 0,0.108036 0.16078,0.548052 0.35729,0.977816 0.19652,0.429759 0.44001,1.120258 0.5411,1.534436 0.10116,0.414185 0.23916,0.888606 0.30681,1.054283 0.24761,0.606469 0.33082,0.922004 0.4766,1.807331 0.15064,0.914745 0.4172,4.304303 0.47971,6.099759 0.0187,0.538433 0.0992,1.088666 0.17882,1.222738 0.0899,0.151423 0.51558,0.304508 1.12372,0.404142 1.16455,0.190781 2.89245,0.768047 3.04631,1.017727 0.0601,0.09763 0.33126,0.268824 0.60244,0.380429 0.97349,0.400652 2.54882,2.221922 3.59585,4.157211 0.41715,0.771018 0.47367,1.048086 0.62787,3.077812 0.12647,1.664452 0.12592,2.41336 -0.002,2.951003 -0.29396,1.233615 -0.35479,3.194952 -0.13445,4.335148 0.19485,1.008278 0.67525,2.47666 0.8623,2.635695 0.14088,0.119777 0.93045,2.269704 1.07777,2.934674 0.0737,0.33258 0.22285,1.54275 0.33148,2.68925 0.17465,1.84337 0.1705,2.13961 -0.0359,2.5604 -0.12839,0.2617 -0.27908,0.50971 -0.33488,0.55113 -0.0558,0.0414 -0.14347,0.34113 -0.19481,0.66601 -0.0618,0.39124 -0.27311,0.77482 -0.62573,1.13594 -0.29282,0.29987 -0.53241,0.6568 -0.53241,0.79315 0,0.13636 -0.20816,0.47238 -0.46257,0.74671 -0.25443,0.27432 -0.56116,0.68516 -0.68162,0.91295 -0.12048,0.22781 -0.27969,0.41419 -0.35381,0.41419 -0.074,0 -0.17927,0.20255 -0.23365,0.45011 -0.0544,0.24756 -0.16141,0.48878 -0.23788,0.53603 -0.0764,0.0472 -0.13902,0.29471 -0.13902,0.54991 0,0.2552 -0.096,0.53924 -0.21322,0.63122 -0.15522,0.12174 -0.24317,0.74064 -0.32337,2.27576 -0.0606,1.15971 -0.10701,2.34578 -0.10312,2.6357 0.004,0.28993 0.024,1.69743 0.0446,3.12779 0.0207,1.43035 -0.006,2.64467 -0.0601,2.69846 -0.0538,0.0538 -0.0978,0.19976 -0.0978,0.3244 0,0.12464 -0.11276,0.3512 -0.25055,0.50347 -0.15997,0.17677 -0.24175,0.50165 -0.22619,0.89869 0.0191,0.48727 -0.0597,0.70589 -0.36418,1.01035 -0.28097,0.28096 -0.37151,0.50455 -0.32704,0.80756 0.0339,0.23046 0.005,0.41902 -0.063,0.41902 -0.0684,0 -0.12478,0.25415 -0.12508,0.56479 -5.8e-4,0.82266 -0.43425,1.4069 -1.40348,1.89182 -0.4654,0.23285 -1.17012,0.7486 -1.56606,1.14612 -0.77503,0.77813 -2.19787,1.66937 -3.14496,1.96995 -0.32293,0.10251 -1.02769,0.34733 -1.56612,0.54409 -0.53844,0.19675 -1.96171,0.52022 -3.16284,0.71883 -3.36981,0.55717 -5.39589,0.36966 -7.00343,-0.64815 -0.33134,-0.20979 -0.85528,-0.49782 -1.16431,-0.64007 -0.30901,-0.14225 -0.67844,-0.34726 -0.82093,-0.45557 -0.26338,-0.20022 -2.44259,-2.37347 -3.311,-3.30195 -0.57832,-0.61833 -3.15552,-3.09221 -4.88552,-4.68969 -1.38635,-1.28014 -3.97598,-3.27487 -4.25285,-3.27587 -0.17452,-6.3e-4 -1.48712,-0.63138 -1.81079,-0.87014 -0.0942,-0.0695 -0.47621,-0.2501 -0.84898,-0.40141 -0.37276,-0.15131 -1.15217,-0.49545 -1.73203,-0.76481 -1.1971,-0.55604 -2.40716,-0.97523 -2.81518,-0.97523 -0.15203,0 -0.39411,-0.0651 -0.53795,-0.14471 -0.4809,-0.26609 -3.40257,-0.65016 -5.42479,-0.71311 -1.45219,-0.0453 -2.36025,0.005 -3.31344,0.18604 -1.19114,0.22526 -1.89256,0.33805 -5.00301,0.80442 -0.53844,0.0807 -2.2667,0.22407 -3.84058,0.31851 -1.68314,0.10106 -3.72998,0.33106 -4.97018,0.55861 -1.89957,0.34853 -2.44443,0.38453 -5.49731,0.3633 -4.14747,-0.0289 -7.45608,-0.34592 -11.220536,-1.07523 -2.617052,-0.50701 -3.102015,-0.57636 -4.112799,-0.58805 -0.522477,-0.006 -1.423729,-0.0892 -2.00278,-0.18487 -1.01724,-0.168 -1.06084,-0.16242 -1.290123,0.16492 -0.20354,0.29059 -0.315006,0.32232 -0.783522,0.22308 -0.300428,-0.0636 -1.461194,-0.1115 -2.579482,-0.10638 -1.895941,0.008 -2.124799,0.0421 -3.388755,0.49385 -0.745528,0.26647 -1.732214,0.54239 -2.192639,0.61314 -0.460425,0.0707 -1.036518,0.23263 -1.280195,0.3597 -0.243684,0.12707 -0.560022,0.23145 -0.702987,0.23196 -0.142965,5.1e-4 -0.481836,0.13623 -0.753059,0.30159 -0.271214,0.16536 -0.617471,0.30091 -0.769441,0.30122 -0.151969,3.2e-4 -0.925143,0.27166 -1.718145,0.60301 -0.793001,0.33135 -1.527295,0.60244 -1.631768,0.60244 -0.205137,0 -1.144743,0.46384 -1.268967,0.62643 -0.0417,0.0546 -0.37268,0.21806 -0.735473,0.36321 -0.874627,0.34995 -4.270077,2.382 -5.18922,3.10551 -0.400907,0.3156 -0.790619,0.57381 -0.866015,0.57381 -0.07538,0 -0.137087,0.12332 -0.137087,0.27405 0,0.24074 -0.6195,0.93084 -0.835607,0.93084 -0.194464,0 -0.971731,0.67713 -0.971731,0.84653 0,0.10313 -0.14594,0.23377 -0.324316,0.29038 -0.178378,0.0566 -0.601971,0.37082 -0.941324,0.69823 -0.339345,0.3274 -0.912943,0.87868 -1.274661,1.22505 -0.361718,0.34638 -1.058426,1.1042 -1.548233,1.68406 -0.489815,0.57985 -0.990223,1.16164 -1.112017,1.29284 -0.121803,0.13119 -0.221448,0.38079 -0.221448,0.55463 0,0.18713 -0.126886,0.35636 -0.310989,0.4148 -0.171056,0.0543 -0.54975,0.43104 -0.841557,0.83722 -0.354597,0.49357 -0.788447,0.86755 -1.308084,1.1276 -0.427636,0.214 -0.917435,0.51957 -1.088451,0.67905 -0.171007,0.15947 -0.416881,0.28995 -0.54639,0.28995 -0.287846,0 -1.373119,0.44166 -1.477151,0.60113 -0.07273,0.11148 -1.446285,0.54667 -3.162831,1.00209 -1.076093,0.28549 -4.714289,0.40635 -6.163703,0.20475 -1.35733,-0.18878 -2.875684,-0.76777 -3.701339,-1.4114 -0.331341,-0.2583 -0.625042,-0.52097 -0.652643,-0.58371 -0.02758,-0.0627 -0.13671,-0.11408 -0.242418,-0.11408 -0.105723,0 -0.422005,-0.23649 -0.702859,-0.52554 -0.280853,-0.28904 -0.646187,-0.52503 -0.811862,-0.52443 -0.39608,0.002 -1.216514,1.25535 -1.44542,2.20909 -0.09551,0.39794 -0.255007,0.85907 -0.35446,1.02474 -0.195955,0.32645 -0.462125,1.3022 -0.615531,2.25641 -0.05301,0.32981 -0.170261,0.73646 -0.260525,0.90366 -0.09027,0.1672 -0.14691,0.59204 -0.125867,0.94409 0.02109,0.35205 -0.02863,0.6401 -0.110415,0.6401 -0.206453,0 -0.14258,0.2225 0.404427,1.4088 0.261792,0.56775 0.512702,1.31329 0.557569,1.65673 0.344612,2.63769 1.449958,4.52807 4.42463,7.56713 0.333924,0.34116 1.064961,1.37829 1.064961,1.51088 0,0.0447 0.355816,0.454 0.790709,0.90956 0.434892,0.45553 0.924883,1.04288 1.088874,1.30518 0.163983,0.26232 0.418148,0.60832 0.564786,0.7689 0.146645,0.16058 0.266635,0.34212 0.266635,0.40342 0,0.0613 0.08681,0.20101 0.192932,0.31048 0.319489,0.32957 0.86134,1.32914 0.86134,1.58892 0,0.13371 0.09029,0.35009 0.200646,0.48088 0.449238,0.53238 0.853032,1.835 0.94465,3.0474 0.103937,1.37549 -0.03368,2.11675 -0.62986,3.39377 -0.200646,0.42976 -0.364821,0.89033 -0.364821,1.02352 0,0.13319 -0.169435,0.56043 -0.376529,0.94945 -0.207085,0.38902 -0.37653,0.81817 -0.37653,0.95369 0,0.44376 -0.444908,1.32313 -0.752801,1.48791 -0.356096,0.19058 -0.369585,0.32388 -0.09673,0.95635 0.472686,1.09562 0.548306,1.33904 0.548306,1.76486 0,0.24626 0.169444,0.71615 0.37653,1.0442 0.207093,0.32806 0.376529,0.65644 0.376529,0.72975 0,0.0733 0.138898,0.30988 0.308671,0.52571 0.180936,0.23001 0.405382,0.90844 0.542373,1.63938 0.128529,0.68584 0.300612,1.32892 0.382399,1.42907 0.08572,0.10497 0.100356,0.39202 0.03456,0.67775 -0.06279,0.27261 -0.09748,0.71593 -0.07706,0.98514 0.0206,0.27209 -0.03496,0.48949 -0.125074,0.48949 -0.08919,0 -0.162155,0.10375 -0.162155,0.23067 0,0.43005 -0.622844,2.08242 -0.902847,2.3952 -0.636308,0.71078 -1.750515,1.84491 -1.990975,2.02654 -0.141971,0.10726 -0.914724,0.4207 -1.717229,0.69653 -0.802512,0.27584 -1.669089,0.67499 -1.92574,0.887 -0.305937,0.25273 -0.674094,0.39484 -1.069075,0.41268 -1.426295,0.0644 -1.732063,0.1103 -2.134767,0.3205 -0.234093,0.12217 -0.866159,0.41659 -1.404602,0.65424 -1.157366,0.51085 -2.197027,1.41993 -2.511705,2.19625 -0.124176,0.30636 -0.473977,0.74511 -0.777332,0.97503 -0.303355,0.22991 -0.7773,0.62311 -1.053221,0.87379 -0.275922,0.25067 -0.784237,0.64626 -1.129588,0.87909 -0.345342,0.23281 -0.797348,0.57942 -1.004433,0.77022 -0.575459,0.53017 -1.271991,0.69844 -3.16284,0.76404 -1.469141,0.0509 -1.86919,0.0125 -2.635696,-0.25387 z m -1.851011,-46.47338 c 0.178369,-0.15484 0.417844,-0.19349 0.778968,-0.12575 0.304117,0.057 0.561401,0.0331 0.617351,-0.0574 0.05277,-0.0854 0.265385,-0.15524 0.47247,-0.15524 0.212666,0 0.336025,-0.0655 0.283451,-0.1506 -0.05172,-0.0836 0.06159,-0.15164 0.254679,-0.15293 0.279779,-0.002 0.303603,-0.0308 0.121851,-0.14829 -0.169292,-0.1094 -0.09189,-0.14658 0.308751,-0.14831 0.294069,-0.002 0.599051,0.0575 0.67775,0.1307 0.07867,0.0731 0.465013,0.17898 0.858478,0.23516 l 0.715409,0.10209 -8.02e-4,-0.87523 c -8.02e-4,-1.09613 0.266227,-3.79363 0.474756,-4.79115 0.08659,-0.41418 0.209595,-1.47963 0.273363,-2.36768 0.07723,-1.07518 0.198168,-1.74013 0.362086,-1.9903 0.135379,-0.20662 0.246147,-0.6129 0.246147,-0.90285 0,-0.28995 0.09327,-0.81759 0.207262,-1.17254 0.113991,-0.35494 0.296642,-0.98423 0.405887,-1.39841 0.109244,-0.41418 0.286659,-0.9225 0.394259,-1.12958 0.1076,-0.20709 0.196043,-0.49114 0.196556,-0.63121 5.13e-4,-0.14008 0.06351,-0.29335 0.139958,-0.34061 0.07642,-0.0472 0.185666,-0.30542 0.242674,-0.57368 0.05702,-0.26827 0.186107,-0.58942 0.286884,-0.71368 0.266162,-0.32819 0.847323,-1.82025 0.762464,-1.95756 -0.03978,-0.0643 0.02871,-0.20062 0.152027,-0.30299 0.123342,-0.1024 0.226419,-0.39809 0.229041,-0.65716 0.0032,-0.25907 0.104304,-0.6026 0.225922,-0.76339 0.121618,-0.1608 0.221128,-0.47874 0.221128,-0.70652 0,-0.22778 0.07241,-0.4589 0.160878,-0.51359 0.08849,-0.0547 0.12991,-0.18014 0.09206,-0.27877 -0.03786,-0.0987 0.02534,-0.30806 0.140342,-0.46538 0.115041,-0.15733 0.211319,-0.45948 0.213957,-0.67145 0.0032,-0.21196 0.104297,-0.51695 0.225914,-0.67775 0.121627,-0.16079 0.221127,-0.41587 0.221127,-0.56683 0,-0.26542 0.05661,-0.41528 0.428317,-1.13437 0.09578,-0.18525 0.174126,-0.43942 0.174126,-0.56479 0,-0.12538 0.05862,-0.22796 0.130287,-0.22796 0.143037,0 0.773387,-1.75424 0.773387,-2.15232 0,-0.13665 0.202643,-0.39826 0.450313,-0.58138 0.247678,-0.18311 0.493776,-0.47318 0.546903,-0.64461 0.05309,-0.17141 0.223236,-0.49157 0.378045,-0.71144 0.1548,-0.21988 0.282537,-0.49098 0.283869,-0.60244 8.01e-4,-0.11147 0.189699,-0.41501 0.41862,-0.67453 0.228922,-0.25952 0.549767,-0.7321 0.712995,-1.05017 0.163229,-0.31807 0.41539,-0.71155 0.560352,-0.8744 0.144969,-0.16284 0.263572,-0.38232 0.263572,-0.48773 0,-0.1054 0.126549,-0.3129 0.28123,-0.46108 0.154672,-0.14819 0.360955,-0.51663 0.458412,-0.81878 0.09746,-0.30214 0.360603,-0.75489 0.584786,-1.00612 0.509244,-0.57069 0.861291,-1.02749 1.238735,-1.60737 0.161761,-0.24851 0.360547,-0.55349 0.441749,-0.67775 0.08121,-0.12426 0.294846,-0.5648 0.474746,-0.97898 0.17991,-0.41418 0.487209,-0.89075 0.682892,-1.05907 0.195682,-0.16831 0.355792,-0.4246 0.355792,-0.56952 0,-0.14492 0.09545,-0.30013 0.212121,-0.34491 0.11667,-0.0448 0.294333,-0.27985 0.394796,-0.5224 0.100471,-0.24256 0.242233,-0.44102 0.315023,-0.44102 0.07281,0 0.132332,-0.12504 0.132332,-0.27788 0,-0.15283 0.127776,-0.39351 0.28394,-0.53484 0.156164,-0.14132 0.322817,-0.45137 0.370338,-0.68898 0.04932,-0.24652 0.213172,-0.47225 0.381637,-0.52572 0.201825,-0.0641 0.327765,-0.28628 0.398069,-0.70238 0.06616,-0.39175 0.255529,-0.74472 0.531234,-0.99038 0.235625,-0.20995 0.472021,-0.58031 0.525331,-0.82303 0.05333,-0.24273 0.226388,-0.52217 0.384613,-0.62098 0.158217,-0.0988 0.287677,-0.29507 0.287677,-0.43611 0,-0.14105 0.122019,-0.34501 0.271143,-0.45326 0.149131,-0.10824 0.361052,-0.43402 0.470945,-0.72394 0.449327,-1.185482 0.545556,-1.355973 0.726243,-1.286638 0.111465,0.04279 0.188393,-0.04881 0.188393,-0.224205 0,-0.163075 0.135546,-0.432042 0.301221,-0.597714 0.165668,-0.165682 0.301222,-0.399015 0.301222,-0.518533 0,-0.225545 0.513977,-1.19575 0.842335,-1.59003 0.103472,-0.124253 0.330917,-0.598678 0.50542,-1.054275 0.174505,-0.455596 0.374324,-0.963911 0.444043,-1.129582 0.06969,-0.165682 0.277316,-0.673986 0.461315,-1.129593 0.183998,-0.455597 0.43008,-1.020232 0.54683,-1.25474 0.116759,-0.234517 0.212282,-0.620385 0.212282,-0.857479 0,-0.268832 0.120487,-0.51548 0.320123,-0.655312 0.239731,-0.167915 0.296322,-0.319015 0.225361,-0.601754 -0.05213,-0.207639 -0.02679,-0.419579 0.05637,-0.470957 0.08314,-0.05141 0.151161,-0.195426 0.151161,-0.320105 0,-0.12467 0.177166,-0.612036 0.393697,-1.083045 0.21654,-0.470998 0.533126,-1.39856 0.703541,-2.061246 0.170405,-0.662696 0.427442,-1.37433 0.571176,-1.581419 0.143743,-0.2071 0.345744,-0.749292 0.448894,-1.204899 0.10314,-0.455597 0.286836,-0.981023 0.408189,-1.167613 0.121353,-0.186586 0.313243,-0.830452 0.426431,-1.430806 0.113175,-0.600355 0.266564,-1.227103 0.340861,-1.392775 0.07426,-0.165672 0.244054,-0.9112 0.377227,-1.656727 0.133174,-0.745522 0.331021,-1.423274 0.439671,-1.50611 0.215554,-0.164352 0.677647,-2.346901 0.95619,-4.516267 0.04243,-0.330204 0.131,-0.669084 0.196901,-0.753058 0.06592,-0.08398 0.161265,-0.457669 0.211922,-0.830429 0.145788,-1.072948 0.620302,-2.673451 0.880041,-2.968374 0.33588,-0.381373 1.02521,-1.948643 1.02521,-2.330921 0,-0.176112 0.169436,-0.542344 0.37653,-0.813854 0.207093,-0.271504 0.376529,-0.58688 0.376529,-0.700831 0,-0.11395 0.0995,-0.338742 0.221126,-0.499535 0.121618,-0.160799 0.223285,-0.381915 0.225915,-0.491379 0.0032,-0.10946 0.106454,-0.300684 0.230709,-0.424938 0.124257,-0.124253 0.225915,-0.343848 0.225915,-0.48798 0,-0.144137 0.152491,-0.42529 0.338871,-0.624786 0.387034,-0.41427 0.715401,-0.997045 0.715401,-1.269672 0,-0.102111 0.135555,-0.341948 0.30123,-0.532967 0.165669,-0.190977 0.301224,-0.491724 0.301224,-0.66828 0,-0.194862 0.172484,-0.422905 0.438934,-0.580294 0.241407,-0.142606 0.74872,-0.560365 1.12735,-0.928356 0.517786,-0.503224 0.932719,-0.742362 1.673965,-0.96474 1.190894,-0.357278 1.770258,-0.246948 2.546211,0.484871 0.521242,0.491596 0.524072,0.501421 0.508419,1.763858 -0.0086,0.698234 -0.0648,1.371172 -0.124697,1.495426 -0.0599,0.124259 -0.224807,0.494782 -0.366409,0.823393 -0.141594,0.32861 -0.378029,0.681926 -0.525388,0.785147 -0.147359,0.103212 -0.313835,0.474705 -0.369937,0.825528 -0.05605,0.350822 -0.294935,1.048027 -0.530761,1.549334 -0.235825,0.501306 -0.47838,1.080905 -0.53902,1.287994 -0.06062,0.20709 -0.163566,0.444304 -0.228729,0.527139 -0.213942,0.271961 -0.702105,1.937144 -0.886857,3.02516 -0.173919,1.024274 -0.164616,1.109118 0.231255,2.10856 0.226845,0.572741 0.498772,1.093669 0.604263,1.157623 0.1055,0.06396 0.301182,0.225652 0.43486,0.359327 0.242257,0.242262 1.712962,0.519004 2.859358,0.538045 0.978972,0.01627 3.600122,-0.341128 3.701186,-0.504653 0.05133,-0.08298 0.413858,-0.172309 0.805728,-0.198511 0.391862,-0.02618 0.788558,-0.123714 0.881557,-0.216711 0.09299,-0.09299 0.367635,-0.169081 0.610317,-0.169081 0.242667,0 1.210661,-0.17257 2.151097,-0.38349 0.940417,-0.21092 1.950391,-0.405076 2.244364,-0.431456 0.293989,-0.02636 0.577568,-0.09102 0.630198,-0.143647 0.05269,-0.05266 0.316762,-0.09569 0.586966,-0.09569 0.270204,0 0.5827,-0.09141 0.694431,-0.20315 0.126565,-0.126564 0.599051,-0.211318 1.253298,-0.224815 0.577584,-0.0119 1.626235,-0.06092 2.330344,-0.108891 0.70411,-0.04798 1.856288,-0.01207 2.560397,0.07982 0.704102,0.09187 1.756424,0.22181 2.338492,0.288742 0.582067,0.06692 1.19536,0.195044 1.362879,0.284699 0.167519,0.08966 0.726371,0.210726 1.241895,0.269051 0.515516,0.05833 0.97368,0.164898 1.018138,0.23682 0.04443,0.07193 0.267847,0.130778 0.496431,0.130778 0.228585,0 0.749842,0.09678 1.158352,0.21507 1.221077,0.353583 3.925579,0.333551 6.164749,-0.04566 1.07686,-0.182373 2.32229,-0.392069 2.76761,-0.465997 0.44533,-0.07393 0.98752,-0.200276 1.20489,-0.280778 0.21738,-0.0805 0.90354,-0.293328 1.52481,-0.47294 0.62127,-0.179619 1.67178,-0.487372 2.33447,-0.683901 4.37139,-1.296376 4.50423,-1.323391 6.47662,-1.317461 1.50846,0.0046 2.54773,0.145072 5.94882,0.804421 0.91009,0.176436 2.10278,0.569063 2.32693,0.766026 0.0786,0.06915 0.23767,0.125716 0.35329,0.125716 0.11561,0 0.39471,0.131388 0.62024,0.291974 0.47953,0.341453 2.54204,0.91132 3.31715,0.91651 0.29503,0.0017 0.80752,0.07596 1.13887,0.164409 0.33134,0.08844 1.0868,0.216226 1.6788,0.283947 0.59199,0.06772 1.24373,0.232808 1.44829,0.366853 0.31483,0.206275 0.8204,0.23908 3.29139,0.21355 1.95001,-0.02015 3.14446,-0.09827 3.59716,-0.235261 1.28228,-0.388039 3.2416,-0.641226 4.98247,-0.64385 1.78386,-0.0028 2.71611,0.183654 4.56378,0.91224 0.40452,0.159513 0.89758,0.290023 1.0957,0.290023 0.1981,0 0.73612,0.13212 1.19557,0.293607 0.45946,0.161488 1.15246,0.335573 1.54001,0.386855 0.38754,0.05129 0.84018,0.149466 1.00585,0.218173 0.16567,0.06871 0.53843,0.225704 0.82837,0.34887 0.28992,0.123166 0.79824,0.308966 1.12958,0.412892 1.12675,0.353401 1.43081,0.484531 1.43081,0.617045 0,0.07278 0.11022,0.132336 0.24493,0.132336 0.13471,0 0.64505,0.203326 1.13408,0.451833 0.48904,0.248508 1.00574,0.454772 1.14823,0.45837 0.24037,0.006 0.82654,0.321313 1.70443,0.916685 0.19909,0.135013 0.6159,0.283209 0.92629,0.329329 0.51027,0.07582 0.57354,0.04707 0.66074,-0.300326 0.21901,-0.872639 -0.30896,-4.20282 -0.78375,-4.943424 -0.10621,-0.165671 -0.24069,-0.572324 -0.29883,-0.903667 -0.10681,-0.608778 -0.76067,-2.117764 -1.05157,-2.426845 -0.0868,-0.09222 -0.35241,-0.634428 -0.59026,-1.204891 -0.23784,-0.570469 -0.64629,-1.308312 -0.90766,-1.639655 -0.26138,-0.331348 -0.68774,-0.91512 -0.94747,-1.297274 -0.65581,-0.96486 -5.88236,-6.178651 -7.35668,-7.338692 -0.66739,-0.525135 -1.55544,-1.141809 -1.97343,-1.370387 -0.41799,-0.228579 -0.95817,-0.556722 -1.20041,-0.729213 -0.24225,-0.17249 -0.74152,-0.430464 -1.10951,-0.573275 -0.36799,-0.142805 -0.77606,-0.3508 -0.90684,-0.462205 -0.13078,-0.111401 -0.2843,-0.202553 -0.34115,-0.202553 -0.10158,0 -1.24928,-0.648705 -2.33436,-1.319407 -0.30293,-0.187239 -0.80493,-0.448753 -1.11556,-0.581147 -0.31065,-0.132388 -0.56479,-0.301127 -0.56479,-0.37497 0,-0.07384 -0.0692,-0.134255 -0.15361,-0.134255 -0.0844,0 -0.40642,-0.159535 -0.7154,-0.354528 -0.30901,-0.194987 -0.73124,-0.404626 -0.93833,-0.46587 -0.20709,-0.06124 -0.93962,-0.376125 -1.62784,-0.699751 -0.68821,-0.323623 -1.32162,-0.58841 -1.40756,-0.58841 -0.086,0 -0.33616,-0.09137 -0.55604,-0.203042 -0.21987,-0.111679 -0.66885,-0.331946 -0.99773,-0.48949 -0.57787,-0.276808 -3.35982,-2.289981 -4.74873,-3.436446 -0.37277,-0.30769 -0.88107,-0.727254 -1.12959,-0.932362 -0.73327,-0.605216 -1.89966,-1.617546 -2.24218,-1.946031 -0.17501,-0.16784 -0.69097,-0.605227 -1.14657,-0.971971 -0.96803,-0.779237 -1.83757,-1.672164 -2.52012,-2.587961 -0.26778,-0.359277 -0.8149,-0.99211 -1.21583,-1.406289 -0.84173,-0.869583 -4.87049,-4.693431 -5.49812,-5.218486 -1.83793,-1.537573 -3.08975,-2.537994 -3.17577,-2.537994 -0.0499,0 -0.2196,-0.118607 -0.37691,-0.26357 -0.1573,-0.144968 -0.53412,-0.433008 -0.83735,-0.640097 -0.30324,-0.20709 -0.63203,-0.447821 -0.73061,-0.53495 -0.22467,-0.198538 -1.3216,-0.704246 -2.21252,-1.02002 -1.20459,-0.426934 -2.89379,-0.727226 -4.81957,-0.856762 -1.03545,-0.06966 -2.55375,-0.175081 -3.37399,-0.234287 -1.48193,-0.106978 -2.90234,0.004 -5.994767,0.468523 -0.803907,0.120753 -1.737949,0.219544 -2.07565,0.219544 -0.3377,0 -1.00157,0.129913 -1.475267,0.28869 -0.473696,0.158773 -1.132362,0.338436 -1.463711,0.399248 -0.331342,0.06081 -0.73799,0.19596 -0.903665,0.30033 -0.165676,0.104371 -1.012861,0.405715 -1.882638,0.669643 -2.78907,0.846339 -4.025736,1.30974 -4.819564,1.805997 -0.124255,0.07767 -0.70034,0.371492 -1.280193,0.652924 -1.689114,0.819812 -2.707107,1.371621 -2.76255,1.497469 -0.02831,0.06435 -0.331647,0.259881 -0.673991,0.43453 -0.342336,0.174648 -0.800339,0.494771 -1.01778,0.711378 -0.217438,0.216607 -0.597014,0.563268 -0.843522,0.770358 -0.246499,0.207089 -0.93332,0.810266 -1.526276,1.340399 -1.099236,0.982764 -1.176564,1.038548 -2.273698,1.640423 -0.346008,0.189819 -0.746298,0.462301 -0.889511,0.605522 -0.143222,0.143221 -0.564008,0.441679 -0.935076,0.663244 -0.371068,0.22156 -1.010705,0.711543 -1.421412,1.088847 -0.410705,0.377309 -0.783466,0.686605 -0.828357,0.687323 -0.04491,5.69e-4 -0.577367,0.475144 -1.183284,1.054277 -0.605907,0.579138 -1.201061,1.052974 -1.322567,1.052974 -0.121513,0 -0.259025,0.09928 -0.305583,0.22062 -0.04659,0.121338 -0.441878,0.457726 -0.878485,0.747525 -0.436609,0.289806 -1.018235,0.783558 -1.292512,1.097231 -0.27427,0.313674 -0.67318,0.682587 -0.886465,0.8198 -0.213284,0.137216 -0.654262,0.493036 -0.979943,0.790708 -0.32568,0.297678 -0.636476,0.541227 -0.690645,0.541227 -0.05421,0 -0.508395,0.393687 -1.009373,0.874853 -0.823531,0.790953 -1.282023,1.164625 -1.975756,1.610237 -0.128955,0.08284 -0.82074,0.56711 -1.537287,1.07617 -0.716547,0.509054 -1.512379,1.033927 -1.768509,1.166377 -0.25613,0.132445 -0.554529,0.361126 -0.6631,0.508178 -0.276018,0.373824 -1.276514,1.12316 -2.075739,1.554643 -0.721133,0.389326 -1.015948,0.598949 -1.676345,1.191942 -0.230638,0.207089 -0.804798,0.64763 -1.275928,0.978973 -0.471131,0.331342 -1.135802,0.831732 -1.477056,1.111968 -0.341253,0.280243 -0.756009,0.572183 -0.921683,0.648764 -0.165668,0.07658 -0.48652,0.398814 -0.713004,0.716086 -0.226475,0.317271 -0.584817,0.620282 -0.796313,0.673364 -0.211488,0.05311 -0.703933,0.32359 -1.094327,0.601134 -0.390387,0.277544 -0.853361,0.54845 -1.028812,0.602016 -0.175458,0.05357 -0.44012,0.231208 -0.588145,0.394767 -0.148009,0.16356 -0.363017,0.297377 -0.477787,0.297377 -0.195048,0 -1.079627,0.551172 -1.253779,0.78122 -0.118193,0.156124 -1.503085,0.728193 -1.503085,0.620891 0,-0.05129 -0.118611,0.01048 -0.263572,0.137357 -0.449897,0.393704 -2.636698,1.573749 -3.390109,1.829365 -0.394212,0.133748 -1.371476,0.582651 -2.171704,0.997565 -0.800217,0.414912 -1.596187,0.754385 -1.768813,0.754385 -0.17262,0 -0.649725,0.238789 -1.060223,0.530638 -0.41049,0.291855 -1.065755,0.625498 -1.456141,0.741429 -0.960666,0.285286 -1.317604,0.480819 -2.008113,1.100061 -0.115468,0.103545 -0.347147,0.188264 -0.514826,0.188264 -0.374869,0 -1.072131,0.305802 -1.072131,0.470203 0,0.06635 -0.268015,0.192802 -0.595595,0.281012 -0.327581,0.0882 -0.785062,0.318426 -1.016631,0.511598 -0.231567,0.193171 -0.692129,0.444291 -1.02347,0.558047 -0.33135,0.113752 -0.837684,0.428347 -1.125194,0.699095 -0.287508,0.270748 -0.611569,0.492273 -0.720131,0.492273 -0.108563,0 -0.2354,0.09908 -0.281872,0.220182 -0.04643,0.1211 -0.207534,0.259237 -0.357917,0.306962 -0.150382,0.04776 -0.564416,0.473904 -0.920072,0.947055 -0.355663,0.473152 -0.75973,0.961935 -0.897939,1.086189 -0.138202,0.124253 -0.310941,0.336551 -0.383859,0.471774 -0.0729,0.135217 -0.44919,0.592094 -0.836161,1.015284 -0.594247,0.649868 -1.199337,1.535319 -1.762711,2.579447 -0.06704,0.124253 -0.200719,0.361466 -0.297044,0.527138 -0.09633,0.165676 -0.327284,0.606211 -0.513238,0.978978 -0.185956,0.372761 -0.387837,0.699977 -0.448629,0.727147 -0.139092,0.06216 -0.717831,1.91725 -0.717831,2.30094 0,0.15695 -0.0518,0.285359 -0.115082,0.285359 -0.107536,0 -0.637977,1.086711 -0.637977,1.307011 0,0.05504 -0.08997,0.207068 -0.199924,0.337844 -0.109965,0.130776 -0.284646,0.542764 -0.388189,0.915535 -0.103545,0.372761 -0.420225,1.131722 -0.70374,1.686584 -0.283508,0.554863 -0.515476,1.142399 -0.515476,1.30564 0,0.163241 -0.09514,0.488685 -0.211432,0.723193 -0.275104,0.55479 -0.541619,1.724762 -0.541619,2.377613 0,0.283849 -0.05773,0.551778 -0.128362,0.595418 -0.07057,0.04362 -0.173068,0.538993 -0.22771,1.100814 -0.201833,2.075215 -0.340876,2.986938 -0.500353,3.280664 -0.08994,0.165672 -0.209514,0.945081 -0.265713,1.732031 -0.05622,0.78694 -0.164728,1.803568 -0.241191,2.259157 -0.07642,0.4556 -0.136196,1.67556 -0.132748,2.71101 0.0032,1.03545 -5.69e-4,2.20212 -0.0091,2.5926 -0.0085,0.39048 0.05766,0.98154 0.147078,1.31346 0.08937,0.33193 0.196901,1.70682 0.238945,3.05533 0.198185,6.35666 0.281487,7.5778 0.527296,7.72972 0.07706,0.0477 0.14007,0.37512 0.14007,0.72777 0,0.72358 0.220646,2.13015 0.475462,3.031 0.326337,1.15366 0.599091,1.95157 0.719546,2.10486 0.06663,0.0849 0.206676,0.42541 0.311102,0.75676 0.104432,0.33133 0.238295,0.67021 0.297484,0.75304 0.05918,0.0829 0.194712,0.47255 0.301166,0.86602 0.106461,0.39348 0.25253,0.71542 0.324597,0.71542 0.07209,0 0.131032,0.12689 0.131032,0.28198 0,0.27514 0.628032,2.3557 0.892327,2.95616 0.0729,0.16567 0.281534,0.68826 0.463584,1.16131 0.18205,0.47305 0.425871,0.93884 0.541827,1.03507 0.115956,0.0963 0.210823,0.23518 0.210823,0.30879 0,0.0736 0.12861,0.42111 0.285801,0.77226 0.157182,0.35115 0.403513,1.01122 0.547399,1.46683 0.14388,0.45559 0.388037,1.07479 0.542565,1.376 0.154529,0.3012 0.280957,0.67801 0.280957,0.83737 0,0.15934 0.261672,0.96341 0.581491,1.78683 0.319818,0.82341 0.657718,1.76821 0.750892,2.09956 0.09317,0.33134 0.37564,1.2463 0.62772,2.03325 0.252072,0.78694 0.528075,1.973 0.613333,2.6357 0.08527,0.66268 0.21371,1.34044 0.28544,1.5061 0.07169,0.16568 0.163381,0.8153 0.203686,1.4436 0.169227,2.63784 0.979918,3.69896 2.089851,2.7354 z m 90.485761,36.10953 c -0.12426,-0.0803 -0.53873,-0.14704 -0.92104,-0.14831 -0.98258,-0.003 -5.04392,-0.56868 -5.36398,-0.74678 -0.14662,-0.0816 -0.80156,-0.28878 -1.4554,-0.46044 -0.65387,-0.17167 -1.53495,-0.4693 -1.95795,-0.6614 -0.42302,-0.19209 -1.02328,-0.4321 -1.33391,-0.53334 -0.31064,-0.10126 -0.56479,-0.23927 -0.56479,-0.3067 0,-0.0674 -0.16369,-0.16368 -0.36377,-0.2139 -0.37629,-0.0944 -2.795663,-2.47049 -2.976751,-2.92343 -0.05629,-0.14084 -0.107135,-0.50359 -0.112958,-0.80613 -0.0093,-0.485 0.04523,-0.56953 0.461813,-0.71473 0.259819,-0.0906 0.548234,-0.26841 0.640935,-0.39519 0.150278,-0.20551 0.266419,-0.19919 1.071371,0.0583 0.49656,0.15885 1.27559,0.37117 1.73118,0.4718 0.45561,0.10064 0.93898,0.23911 1.07417,0.30771 0.13519,0.0685 1.21959,0.2674 2.40977,0.44176 1.1902,0.17436 2.26565,0.36074 2.3899,0.41416 0.12426,0.0534 0.90368,0.14442 1.73204,0.20223 0.82836,0.0579 2.59051,0.24001 3.9159,0.40492 2.3563,0.29318 3.43346,0.31164 7.92067,0.1357 0.87725,-0.0344 1.73692,-0.13849 1.91038,-0.23133 0.17347,-0.0928 0.58695,-0.16878 0.91886,-0.16878 0.3319,0 0.6425,-0.0631 0.69022,-0.14039 0.0477,-0.0773 0.47531,-0.22348 0.95021,-0.32506 0.47489,-0.10157 0.92783,-0.24171 1.00652,-0.31144 0.0786,-0.0698 0.29497,-0.12679 0.4806,-0.12679 0.18563,0 0.37635,-0.0628 0.42382,-0.13962 0.0475,-0.0769 0.39924,-0.11413 0.78174,-0.083 1.2805,0.10434 1.87025,1.13793 0.95707,1.67735 -0.24851,0.1468 -0.45184,0.384 -0.45184,0.52712 0,0.1431 -0.12744,0.34948 -0.28322,0.45859 -0.15578,0.1091 -0.30911,0.33271 -0.34071,0.49688 -0.0316,0.16417 -0.24305,0.38743 -0.46983,0.49612 -0.2268,0.10871 -0.41234,0.25337 -0.41234,0.32148 0,0.1566 -1.2244,0.68617 -2.49097,1.07738 -0.5352,0.1653 -0.97309,0.3491 -0.97309,0.40844 0,0.15944 -1.12622,0.48245 -1.68213,0.48245 -0.26509,0 -0.85919,0.096 -1.32022,0.21334 -0.85378,0.21731 -3.36287,0.63524 -5.13067,0.8546 -1.34646,0.16709 -2.59112,0.16115 -2.8616,-0.0136 z m -31.703683,-6.25381 c -0.414179,-0.10646 -1.067737,-0.20007 -1.452349,-0.20802 -0.73455,-0.0152 -2.852824,-0.39565 -3.367218,-0.60478 -0.165667,-0.0674 -0.640093,-0.20346 -1.054272,-0.30245 -0.414179,-0.099 -1.363031,-0.48533 -2.108559,-0.85858 -2.817674,-1.41064 -3.469083,-1.90266 -4.065126,-3.07043 -0.190895,-0.37398 -0.649525,-1.08562 -1.019189,-1.58142 -0.628032,-0.8423 -0.677727,-0.97861 -0.757549,-2.07774 -0.04699,-0.64695 -0.163999,-1.27096 -0.260036,-1.38667 -0.134512,-0.16208 -0.119733,-0.28876 0.06439,-0.55161 0.151297,-0.21601 0.238986,-0.6605 0.238986,-1.21135 0,-0.4797 0.0676,-0.87016 0.150615,-0.87016 0.08284,0 0.150607,-0.17268 0.150607,-0.38372 0,-0.21321 0.163125,-0.53489 0.36709,-0.72392 0.274518,-0.25443 0.378959,-0.52764 0.414179,-1.08355 0.04058,-0.64028 0.104433,-0.77071 0.46065,-0.94072 0.227454,-0.10856 0.632266,-0.39714 0.899575,-0.6413 0.267317,-0.24414 0.530793,-0.44391 0.585515,-0.44391 0.05469,0 0.134922,-0.13555 0.178249,-0.30121 0.04515,-0.17272 0.205434,-0.30124 0.375655,-0.30124 0.163278,0 0.381252,-0.10167 0.48437,-0.22592 0.103129,-0.12424 0.316875,-0.22591 0.475005,-0.22591 0.158128,0 0.326521,-0.10167 0.374195,-0.22591 0.05269,-0.1374 0.280629,-0.22592 0.581609,-0.22592 0.320075,0 0.528451,-0.0874 0.589846,-0.24739 0.08039,-0.2095 0.264558,-0.23456 1.202169,-0.16364 0.608978,0.046 1.234316,0.14905 1.389638,0.22888 0.155322,0.0799 0.553503,0.22906 0.884852,0.33159 0.331343,0.1025 0.805768,0.369 1.054281,0.59214 0.697016,0.6259 1.519976,1.20045 1.957948,1.36698 0.628008,0.23877 1.40332,0.89279 1.653964,1.39523 0.126486,0.25354 0.212748,0.47214 0.191682,0.48573 -0.02109,0.0136 -0.343298,0.23894 -0.716058,0.50073 -0.419191,0.2944 -0.954106,0.51374 -1.402117,0.57496 -0.619845,0.0846 -0.793707,0.047 -1.204891,-0.26071 -0.391003,-0.29266 -0.662923,-0.35984 -1.459501,-0.36058 l -0.978972,-8e-4 -0.409352,0.82837 c -0.225145,0.4556 -0.406761,1.06558 -0.403594,1.3555 0.0048,0.42968 0.02967,0.47145 0.135187,0.22592 0.125298,-0.29157 0.129781,-0.29075 0.140029,0.0254 0.0259,0.80002 0.982911,1.74352 2.119145,2.08927 0.838181,0.25506 5.42201,0.0401 5.42201,-0.25431 0,-0.0706 0.175923,-0.12838 0.39094,-0.12838 0.215016,0 0.57084,-0.0934 0.790708,-0.20743 0.478131,-0.24808 1.685472,-0.54562 2.213995,-0.54562 0.208497,0 0.418245,-0.10209 0.466111,-0.22678 0.04788,-0.12472 0.337636,-0.26684 0.643958,-0.31581 0.388478,-0.0621 0.645451,-0.22119 0.849569,-0.52586 0.18156,-0.271 0.424643,-0.43696 0.640405,-0.43723 0.191264,-2.4e-4 0.30714,-0.0662 0.257502,-0.14649 -0.04964,-0.0803 0.141401,-0.24285 0.424556,-0.36116 0.283154,-0.11831 0.558562,-0.28589 0.612026,-0.37239 0.0534,-0.0865 0.40061,-0.20277 0.771445,-0.25839 0.370829,-0.0557 0.674231,-0.16118 0.674231,-0.23461 0,-0.0734 0.09253,-0.13351 0.20561,-0.13351 0.113086,0 0.378165,-0.13572 0.589067,-0.30162 0.210903,-0.1659 0.481116,-0.26416 0.60048,-0.21836 0.128089,0.0491 0.318245,-0.0712 0.464073,-0.29378 0.151706,-0.23154 0.450939,-0.4153 0.775336,-0.47616 0.290547,-0.0545 0.528274,-0.15934 0.528274,-0.23296 0,-0.0736 0.170791,-0.13384 0.37952,-0.13384 0.208738,0 0.666228,-0.18385 1.016631,-0.40854 0.56841,-0.36448 0.807612,-0.41453 2.218518,-0.46421 0.869789,-0.0306 1.85253,0.0135 2.18387,0.0978 1.8722,0.47705 3.0299,0.81547 3.16284,0.92456 0.25648,0.21047 1.94086,1.05522 2.1044,1.05539 0.34451,3.8e-4 1.8872,1.62991 2.28121,2.40962 0.23023,0.45559 0.4778,0.86927 0.55013,0.91928 0.22506,0.1556 0.42849,1.22099 0.42841,2.24355 -1.5e-4,1.75701 -0.007,1.80734 -0.24337,1.80734 -0.13232,0 -0.22592,0.13721 -0.22592,0.3312 0,0.2015 -0.28669,0.60037 -0.73214,1.01857 -1.03609,0.97274 -2.04086,1.19071 -4.15126,0.9006 -2.01424,-0.27689 -6.985752,-0.19636 -8.144473,0.13193 -0.904924,0.25639 -3.238147,1.5672 -3.238147,1.81923 0,0.06 -0.409031,0.23171 -0.908966,0.38146 -0.499928,0.14975 -1.128393,0.42119 -1.396584,0.60319 -0.268199,0.182 -1.028274,0.51984 -1.68908,0.75075 -0.660798,0.23091 -1.33701,0.48097 -1.502677,0.55569 -0.274967,0.12401 -4.110385,0.4553 -4.819563,0.41629 -0.165674,-0.009 -0.640101,-0.10365 -1.05428,-0.21015 z m 61.374093,-2.26905 c -1.03545,-0.18584 -2.20126,-0.3436 -2.59069,-0.35056 -0.74852,-0.0134 -2.2986,-0.36678 -2.58566,-0.58951 -0.28356,-0.22002 -3.4172,-1.1943 -4.46277,-1.38753 -0.53843,-0.0995 -1.41398,-0.3082 -1.94565,-0.46377 -0.75407,-0.22062 -1.44975,-0.28205 -3.16285,-0.27925 -1.20788,0.002 -2.46725,0.0694 -2.79859,0.14984 -0.33134,0.0804 -1.66288,0.19082 -2.95896,0.24531 l -2.35652,0.0991 -1.46719,-0.73801 c -1.00549,-0.50578 -1.59072,-0.90403 -1.85974,-1.26552 -0.2159,-0.29013 -0.43679,-0.56139 -0.49087,-0.60281 -0.054,-0.0414 -0.28327,-0.4663 -0.50932,-0.94417 -0.22604,-0.47786 -0.47024,-0.90546 -0.54264,-0.9502 -0.0724,-0.0448 -0.13163,-0.61655 -0.13163,-1.27067 0,-1.02028 0.0535,-1.26818 0.37657,-1.74422 0.20712,-0.3052 0.47341,-0.63015 0.59179,-0.7221 0.11836,-0.0919 0.23696,-0.33657 0.26352,-0.54359 0.0365,-0.28439 0.18702,-0.42171 0.6158,-0.56178 0.31211,-0.10199 0.85102,-0.45784 1.19758,-0.79084 0.43271,-0.4158 0.7636,-0.60545 1.05631,-0.60545 0.23993,0 0.46411,-0.0988 0.51291,-0.22591 0.0635,-0.16524 0.32366,-0.22592 0.96895,-0.22592 0.74048,0 0.90929,-0.0505 1.05055,-0.31445 0.12818,-0.23952 0.25803,-0.29192 0.54495,-0.21991 0.29436,0.0738 0.39375,0.0293 0.45478,-0.20408 0.1066,-0.40764 0.53365,-0.46476 2.90908,-0.38922 3.01924,0.0961 4.66652,0.26229 6.02445,0.6081 0.4556,0.11603 1.30248,0.32411 1.88197,0.4624 0.57949,0.13831 1.42667,0.4554 1.88264,0.70468 2.59173,1.41683 3.21745,1.68103 4.70326,1.98592 0.63978,0.13129 1.45306,0.34161 1.80733,0.46739 0.35426,0.12578 1.43523,0.26905 2.40214,0.31837 1.51469,0.0773 1.7926,0.055 2.00775,-0.16004 0.13733,-0.13733 0.31,-0.21245 0.38369,-0.1669 0.0737,0.0456 0.45793,-0.0498 0.85387,-0.21205 0.39594,-0.16217 0.89182,-0.33203 1.10194,-0.37744 0.55084,-0.11909 0.8475,-0.97156 0.54104,-1.55476 -0.35699,-0.67932 -1.45563,-1.63604 -2.4444,-2.12864 -0.50539,-0.25178 -1.12515,-0.63133 -1.37724,-0.84346 -0.37612,-0.31647 -0.61664,-0.38629 -1.3403,-0.38905 -1.22321,-0.005 -1.61037,-0.31399 -1.62448,-1.29797 -0.009,-0.66983 0.0215,-0.73634 0.36602,-0.78401 0.20709,-0.0287 0.46037,-0.12093 0.56284,-0.20508 0.10251,-0.0841 0.35304,-0.11115 0.55682,-0.06 0.26433,0.0664 0.41288,0.0171 0.51835,-0.17143 0.13242,-0.23687 0.48656,-0.26972 3.39549,-0.31503 2.79168,-0.0435 3.343,-0.0142 3.92664,0.20872 0.37345,0.14263 0.67898,0.30327 0.67898,0.35699 0,0.0537 0.18744,0.2084 0.41653,0.34372 0.5875,0.34706 1.27049,1.00354 1.18611,1.14009 -0.0391,0.0632 0.39763,0.61733 0.97048,1.23133 0.57286,0.614 1.04156,1.23488 1.04156,1.37972 0,0.14485 0.10167,0.36503 0.22591,0.48928 0.12426,0.12425 0.22592,0.43409 0.22592,0.68851 0,0.25442 0.0631,0.46259 0.14046,0.46259 0.23648,0 0.34749,0.60338 0.15392,0.83662 -0.1428,0.17205 -0.14204,0.36368 0.003,0.88357 0.14804,0.52877 0.14718,0.88874 -0.005,1.76868 -0.10459,0.60762 -0.28121,1.21177 -0.39251,1.34255 -0.11129,0.13078 -0.20235,0.44443 -0.20235,0.69701 0,0.42747 -0.21591,1.09903 -0.64368,2.00214 -0.21954,0.46347 -1.20043,1.42014 -1.94242,1.89446 -0.30406,0.19437 -0.59663,0.49136 -0.65014,0.65996 -0.0954,0.30077 -1.26815,1.21086 -1.56025,1.21086 -0.0817,0 -0.1746,0.0781 -0.20642,0.17354 -0.0319,0.0954 -0.35939,0.25658 -0.72795,0.35808 -0.36857,0.10146 -1.17842,0.33362 -1.79971,0.51588 -2.62743,0.77075 -3.26186,0.81176 -5.72322,0.36998 z M 109.3935,162.81914 c -0.95261,-0.23415 -1.93535,-0.52431 -2.18385,-0.6448 -0.24852,-0.12049 -0.80581,-0.3258 -1.23845,-0.45622 -1.58599,-0.47813 -3.69514,-1.66521 -4.60856,-2.59382 -0.64819,-0.65895 -0.84186,-0.95317 -0.77627,-1.17925 0.0481,-0.16567 0.12317,-0.57232 0.16691,-0.90366 0.0437,-0.33134 0.15294,-0.79573 0.24268,-1.03194 0.15228,-0.40087 0.20369,-0.42301 0.77116,-0.33227 0.33441,0.0535 0.67916,0.15099 0.76611,0.2167 0.0869,0.0656 0.58167,0.27433 1.0994,0.46358 0.51772,0.18927 0.94132,0.39577 0.94132,0.45888 0,0.0632 0.38971,0.26905 0.86602,0.45765 0.4763,0.18858 0.97301,0.43367 1.10378,0.54463 0.13078,0.11096 0.31244,0.20174 0.40368,0.20174 0.0912,0 0.6281,0.21396 1.19303,0.47547 0.90828,0.42047 1.2481,0.4889 2.93669,0.5914 1.05026,0.0638 2.03877,0.18509 2.19672,0.26961 0.4855,0.25984 1.88915,0.16038 2.11002,-0.14951 0.12917,-0.18121 0.48513,-0.30233 1.0894,-0.3707 0.49365,-0.0558 0.97477,-0.19458 1.06913,-0.3083 0.0944,-0.11371 0.25716,-0.20675 0.36174,-0.20675 0.22702,0 0.67665,-0.647 0.67665,-0.97367 0,-0.1565 0.146,-0.23121 0.45182,-0.23121 0.24851,0 0.45184,-0.0596 0.45184,-0.13235 0,-0.0728 0.20332,-0.21655 0.45184,-0.31949 0.2485,-0.10292 0.45183,-0.27866 0.45183,-0.39049 0,-0.39062 0.91646,-0.49269 1.73203,-0.1929 1.01551,0.37329 1.42909,0.9053 1.43005,1.83956 5.7e-4,0.64945 -0.0752,0.81799 -0.6953,1.54377 -0.61404,0.71875 -0.76294,0.81473 -1.26387,0.81473 -0.46701,0 -0.58327,0.0615 -0.65482,0.34663 -0.0654,0.2608 -0.24666,0.38201 -0.73172,0.48949 -0.43678,0.0968 -0.69191,0.25036 -0.791,0.47613 -0.11522,0.26256 -0.41886,0.39973 -1.43081,0.6464 -0.7065,0.17222 -1.52175,0.38644 -1.81169,0.47605 -0.28992,0.0896 -0.89989,0.19193 -1.3555,0.22742 -0.4556,0.0354 -0.93002,0.10612 -1.05427,0.15695 -0.64349,0.26324 -2.69344,0.13208 -4.36774,-0.27946 z M 80.363431,151.57129 c -0.203926,-0.029 -0.372889,-0.18462 -0.424764,-0.39131 -0.04739,-0.18876 -0.403305,-0.58517 -0.790957,-0.88089 -0.691386,-0.52743 -1.382577,-1.23071 -1.382577,-1.40674 0,-0.049 -0.107689,-0.31602 -0.23933,-0.59342 -0.208425,-0.43922 -0.347653,-0.52684 -1.078202,-0.6785 -0.461371,-0.0958 -1.319464,-0.14309 -1.906879,-0.10515 -0.662226,0.0428 -1.409847,-0.0151 -1.967737,-0.15231 -0.594592,-0.14626 -1.216009,-0.1889 -1.832358,-0.12576 -1.053581,0.10795 -3.626865,-0.13971 -3.912193,-0.37651 -0.103244,-0.0857 -0.582115,-0.19422 -1.064144,-0.24117 -0.482028,-0.047 -0.988947,-0.1831 -1.126491,-0.30255 -0.137536,-0.11944 -0.365447,-0.68798 -0.506471,-1.26342 -0.214623,-0.87582 -0.225257,-1.12143 -0.06527,-1.50766 0.215233,-0.5196 0.738544,-0.78282 1.284116,-0.64588 0.218529,0.0548 0.366081,0.0263 0.366081,-0.0709 0,-0.0988 0.31102,-0.15404 0.790707,-0.14062 0.434885,0.0122 2.417304,0.009 4.405377,-0.005 3.351048,-0.0255 5.734656,0.16198 6.048348,0.47568 0.05004,0.0501 0.2222,0.0208 0.382534,-0.065 0.219491,-0.11747 0.386963,-0.0935 0.6778,0.0971 l 0.38628,0.25311 -0.107898,-0.58127 c -0.05934,-0.3197 -0.20589,-0.69054 -0.325639,-0.82409 -0.119758,-0.13355 -0.280853,-0.46288 -0.357989,-0.73186 -0.114569,-0.39949 -0.07458,-0.61702 0.21844,-1.18798 0.38074,-0.74192 0.888197,-1.07549 1.636134,-1.07549 0.374252,0 0.412142,-0.0339 0.252755,-0.22592 -0.179725,-0.21655 -0.09516,-0.30132 0.225913,-0.22648 0.671673,0.15658 2.289904,0.2501 2.422829,0.14004 0.09001,-0.0745 0.652925,-0.10292 1.250917,-0.063 0.700188,0.0466 1.054304,0.0192 0.994698,-0.0773 -0.131858,-0.21333 0.771454,-0.18819 1.122843,0.0313 0.229282,0.1432 0.370932,0.13766 0.67759,-0.0265 0.313909,-0.16801 0.593703,-0.17561 1.469943,-0.04 0.595226,0.0921 1.13658,0.13394 1.20301,0.0928 0.0664,-0.041 0.123166,-0.25701 0.126101,-0.47992 0.0032,-0.22291 0.102194,-0.57473 0.220581,-0.78183 0.118387,-0.20709 0.217639,-0.52445 0.220583,-0.70525 0.0032,-0.1808 0.12654,-0.3672 0.274693,-0.41421 0.304775,-0.0967 1.387362,-1.3357 1.387362,-1.58775 0,-0.22749 1.513518,-0.0179 1.777564,0.24614 0.111048,0.11105 0.302544,0.20191 0.42555,0.20191 0.312047,0 1.110341,0.90894 1.110341,1.26424 0,0.1614 0.110591,0.41566 0.245762,0.56503 0.22751,0.25139 0.226411,0.3011 -0.01476,0.66915 -0.256732,0.39183 -0.253612,0.40387 0.215362,0.83222 0.520632,0.47551 0.700966,0.53196 0.795319,0.24891 0.04859,-0.1459 0.23176,-0.14221 0.853802,0.0172 0.489831,0.12553 0.845487,0.14937 0.932373,0.0625 0.17889,-0.17888 3.47566,-0.0762 3.6668,0.1141 0.0787,0.0784 0.32457,0.14253 0.54639,0.14253 0.59299,0 1.35978,0.36494 1.8519,0.88138 0.36496,0.383 0.4176,0.53522 0.33584,0.97108 -0.0533,0.28429 -0.055,0.62633 -0.003,0.76008 0.14828,0.38639 0.98272,0.53769 2.0481,0.37138 1.3327,-0.20808 3.95695,-0.27053 4.94337,-0.11765 0.4556,0.0705 1.40445,0.22918 2.10856,0.35238 0.70411,0.12321 1.68004,0.27179 2.16875,0.33018 l 0.88854,0.10618 -0.0835,-0.62258 c -0.0459,-0.34243 -0.0222,-0.66049 0.0528,-0.70681 0.075,-0.0463 0.13627,-0.3535 0.13627,-0.68261 0,-0.59907 0.20744,-1.17283 0.73013,-2.01954 0.2312,-0.37449 0.36171,-0.44353 0.76251,-0.40332 0.26597,0.0267 0.57717,-0.0291 0.69153,-0.12406 0.15647,-0.12986 0.77865,-0.12486 2.51359,0.0202 1.26812,0.10603 3.0512,0.19723 3.96239,0.20265 0.9112,0.005 1.80922,0.0639 1.9956,0.12971 0.38416,0.13582 0.47336,-0.15271 0.15061,-0.48716 -0.15156,-0.15706 -0.12219,-0.23994 0.1506,-0.42502 0.25193,-0.17093 0.33889,-0.37721 0.33889,-0.80386 0,-0.41844 0.0728,-0.59703 0.26863,-0.65918 0.14775,-0.047 0.3888,-0.28868 0.53565,-0.53729 0.27504,-0.4656 0.52249,-0.53884 1.60549,-0.47517 1.38806,0.0816 2.67551,1.56381 2.27449,2.61856 -0.12752,0.33542 -0.0865,0.39942 0.41101,0.64156 0.47714,0.23224 1.08772,0.27632 4.46855,0.3227 2.15374,0.0295 4.07299,0.0904 4.265,0.13509 0.19201,0.0448 0.83588,0.1167 1.43081,0.15987 1.14791,0.0833 1.75797,0.35343 1.76175,0.78012 0.002,0.22535 0.0241,0.22992 0.16482,0.0342 0.13412,-0.18643 0.14641,-0.17652 0.0704,0.0568 -0.0507,0.15546 -0.0106,0.38091 0.0891,0.50096 0.14183,0.1709 0.13936,0.24415 -0.0113,0.33728 -0.13993,0.0865 -0.0713,0.20522 0.25106,0.43481 0.39098,0.2784 0.64706,0.31442 2.16013,0.30383 0.94411,-0.006 3.13984,0.0354 4.87941,0.0933 l 3.16283,0.10524 0.73078,0.74262 c 0.54184,0.55062 0.70153,0.81025 0.61769,1.00424 -0.0621,0.1439 -0.0989,0.40845 -0.0815,0.58792 0.0173,0.17944 -0.0678,0.38277 -0.18904,0.45182 -0.12131,0.0691 -0.24401,0.28819 -0.2727,0.48696 -0.0287,0.1988 -0.24041,0.50147 -0.47051,0.67264 -0.37936,0.28221 -0.63214,0.31153 -2.71101,0.31447 -1.26094,0.002 -3.24148,-0.0237 -4.40119,-0.0566 -1.1597,-0.0329 -2.34765,-0.049 -2.63988,-0.0357 -0.53119,0.0241 -0.53133,0.0242 -0.52402,0.73948 0.005,0.56699 -0.0714,0.79637 -0.37233,1.10577 -0.81774,0.84086 -1.31223,1.42723 -1.39327,1.65217 -0.0466,0.12936 -0.51876,0.44887 -1.04922,0.71001 -0.91158,0.44878 -0.96445,0.50372 -0.96445,1.00231 0,0.67845 -0.0961,0.76027 -0.60315,0.51359 l -0.41512,-0.20196 0.0389,-1.8813 c 0.0214,-1.03473 0.10084,-1.956 0.1766,-2.04726 0.0757,-0.0913 0.10471,-0.87127 0.0644,-1.73336 -0.0403,-0.86207 -0.076,-1.75825 -0.0794,-1.9915 -0.005,-0.3381 -0.11079,-0.46782 -0.52272,-0.63994 -0.6536,-0.27309 -4.43387,-0.54871 -6.6962,-0.48824 l -1.72613,0.0461 -0.10344,0.50688 c -0.0569,0.27878 -0.24592,0.69962 -0.42008,0.93521 -0.17419,0.2356 -0.3167,0.52146 -0.3167,0.63526 0,0.11381 -0.24851,0.45542 -0.55224,0.75916 -0.44708,0.44707 -0.66408,0.55223 -1.13949,0.55223 -0.32298,0 -0.72425,-0.0733 -0.89171,-0.16294 -0.53396,-0.28576 -1.1656,-1.09571 -1.40514,-1.80178 -0.48574,-1.43175 -0.91252,-1.64347 -3.48811,-1.7305 l -1.54001,-0.052 -0.0987,0.44902 c -0.0572,0.26034 -0.027,0.53526 0.0718,0.65432 0.13449,0.16204 0.0438,0.29567 -0.43031,0.63393 -0.49967,0.35651 -0.58595,0.49194 -0.51285,0.80512 0.0484,0.20709 0.14923,0.45477 0.2242,0.55039 0.12697,0.16191 0.0637,0.73084 -0.13978,1.25695 -0.0481,0.12426 -0.0991,0.25981 -0.11339,0.30123 -0.0142,0.0413 -0.0661,0.17696 -0.11524,0.30121 -0.0491,0.12427 -0.0772,0.39112 -0.0623,0.59303 0.0202,0.2757 -0.0647,0.38941 -0.34128,0.45666 -0.25167,0.0612 -0.40677,0.23835 -0.49003,0.55967 -0.0882,0.34005 -0.25289,0.5158 -0.59558,0.63527 -0.65731,0.22914 -1.63642,0.20261 -2.08555,-0.0565 -0.41029,-0.23671 -0.37047,-0.21761 -2.33447,-1.11936 -0.74553,-0.34231 -1.48255,-0.69477 -1.63782,-0.78324 -0.40564,-0.23113 -3.39483,-0.73132 -5.01869,-0.83981 -1.81038,-0.12093 -4.45613,0.2894 -5.01587,0.7779 -0.45143,0.39397 -1.81031,0.8411 -2.22595,0.7324 -0.48457,-0.12672 -0.89832,-1.2355 -1.255983,-3.36577 -0.0904,-0.53845 -0.225629,-1.05443 -0.300496,-1.14663 -0.07738,-0.0952 -0.899351,-0.20713 -1.904481,-0.25913 -0.97259,-0.0503 -2.225832,-0.13666 -2.784972,-0.19186 -0.843273,-0.0833 -1.01663,-0.0622 -1.01663,0.12304 0,0.38237 -0.45883,1.1653 -0.843322,1.43899 -0.202049,0.14382 -0.518555,0.38726 -0.703339,0.54098 -0.184786,0.15373 -0.505413,0.35319 -0.712506,0.44325 l -0.376529,0.16375 0.414186,0.0563 c 0.227799,0.0309 0.414179,0.11953 0.414179,0.19686 0,0.21314 -0.489758,0.1593 -0.819497,-0.0901 -0.160798,-0.12161 -0.436062,-0.22112 -0.611697,-0.22112 -0.363835,0 -0.978588,-0.5132 -0.978588,-0.81694 0,-0.48131 -0.527616,-1.84862 -0.841789,-2.18149 -0.327637,-0.34714 -0.418943,-0.36152 -2.122417,-0.3343 -0.979029,0.0157 -1.983374,0.0631 -2.231886,0.10526 -0.248504,0.0423 -0.779129,0.014 -1.179153,-0.0627 -0.400034,-0.0768 -0.866104,-0.10323 -1.035725,-0.0589 -0.280179,0.0733 -0.300034,0.16064 -0.217036,0.95475 0.05357,0.5126 0.03032,0.91181 -0.05622,0.96531 -0.08116,0.0501 -0.147575,0.27697 -0.147575,0.50403 0,0.22705 -0.06062,0.47721 -0.134746,0.5559 -0.07674,0.0815 -0.08199,0.51842 -0.01219,1.01495 0.06736,0.47954 0.07089,1.05562 0.008,1.2802 -0.06311,0.22458 -0.0841,0.66248 -0.04659,0.97311 0.04275,0.35419 0.0056,0.56479 -0.09896,0.56479 -0.0919,0 -0.167094,0.12725 -0.167094,0.28278 0,0.15554 -0.101,0.36661 -0.224455,0.46907 -0.1325,0.10996 -0.190887,0.32005 -0.142523,0.51277 0.125193,0.49881 -0.243781,1.07937 -0.649396,1.02176 z m 55.926099,-17.32824 c -0.0498,-0.0804 -0.41155,-0.26787 -0.80418,-0.41664 -0.39261,-0.14877 -0.8444,-0.39053 -1.00396,-0.53727 -0.15956,-0.14674 -0.42931,-0.31098 -0.59943,-0.36496 -0.1701,-0.054 -0.48349,-0.27505 -0.6964,-0.49122 -0.21292,-0.21618 -0.52106,-0.49801 -0.68477,-0.62631 -0.38583,-0.30238 -3.38525,-0.74907 -5.03392,-0.74969 -1.24418,-4.5e-4 -3.14529,-0.33474 -3.30815,-0.58168 -0.0444,-0.0672 -0.3856,-0.22246 -0.75836,-0.34497 l -0.67775,-0.22275 -0.0458,-0.8738 c -0.0433,-0.82702 -0.0286,-0.86932 0.27492,-0.78994 0.29822,0.0779 0.31368,0.0424 0.22078,-0.50746 -0.062,-0.36699 -0.0416,-0.59131 0.0538,-0.59131 0.0845,0 0.1934,-0.12511 0.24194,-0.27804 0.11202,-0.35295 0.90002,-0.58957 2.34896,-0.70537 l 1.13672,-0.0909 0.38051,-0.6301 c 0.3355,-0.55558 0.35925,-0.68357 0.20078,-1.08196 -0.0989,-0.2485 -0.22544,-0.70547 -0.28129,-1.01548 -0.0982,-0.54474 -0.0874,-0.56278 0.31923,-0.53781 0.47247,0.0291 0.94792,0.36656 0.94792,0.67297 0,0.11142 0.0596,0.20258 0.13235,0.20258 0.0728,0 0.22049,0.21282 0.32823,0.47294 0.28026,0.67657 0.99334,1.37276 1.94922,1.903 0.81012,0.44938 0.87973,0.46046 3.16283,0.50375 1.49548,0.0284 2.43872,-0.0149 2.62455,-0.12068 0.27806,-0.15813 0.26983,-0.19648 -0.19901,-0.92712 -0.57244,-0.89206 -0.59824,-1.57667 -0.0623,-1.65294 0.48329,-0.0687 1.37691,0.56505 2.70544,1.9189 0.6523,0.66472 0.78989,0.91437 0.50395,0.91437 -0.0829,0 -0.1506,0.0669 -0.1506,0.14859 0,0.19951 0.99301,0.60413 1.48686,0.60585 0.21767,7.3e-4 0.73466,0.16743 1.14884,0.37041 0.41417,0.20297 1.12544,0.45405 1.58058,0.55797 0.60321,0.13772 0.92954,0.3129 1.20378,0.64621 0.20694,0.25151 0.71563,0.82467 1.13042,1.2737 0.41479,0.44902 0.628,0.77018 0.47383,0.71369 -0.21529,-0.0789 -0.25898,-0.0471 -0.18827,0.13722 0.0507,0.13197 0.0921,0.26829 0.0921,0.30294 0,0.0346 0.0976,0.063 0.21703,0.063 0.46755,0 0.37275,0.31172 -0.17134,0.5634 -0.31506,0.14573 -0.61903,0.32922 -0.67549,0.40777 -0.16537,0.23008 -2.01328,0.2884 -2.56386,0.0809 -0.27298,-0.10292 -1.27572,-0.24082 -2.22834,-0.30655 -0.95263,-0.0657 -2.39134,-0.20538 -3.19715,-0.31035 -0.80581,-0.10497 -1.5125,-0.14346 -1.57042,-0.0856 -0.1493,0.14929 0.35998,0.50268 1.15289,0.79997 0.95488,0.35803 1.09609,0.57159 0.76776,1.16117 -0.23594,0.42367 -0.34828,0.48045 -1.02997,0.5206 -0.42082,0.0248 -0.80578,-0.0207 -0.85547,-0.10116 z m -51.108091,-1.05907 c -0.138114,-0.13788 -0.180871,-0.3762 -0.122933,-0.68506 0.152836,-0.81464 -0.08754,-0.9429 -1.984312,-1.0587 -1.099155,-0.0671 -1.694381,-0.0505 -1.694381,0.0474 0,0.0829 0.05084,0.17919 0.112957,0.21393 0.06215,0.0347 0.01131,0.0315 -0.112957,-0.007 -0.307076,-0.0957 -2.519784,-0.052 -3.123342,0.0616 -0.29467,0.0555 -0.853955,-0.018 -1.413319,-0.18548 -0.858293,-0.25711 -0.946126,-0.325 -1.206731,-0.93298 -0.154584,-0.36064 -0.281062,-0.74496 -0.281062,-0.85407 0,-0.37438 1.060824,-1.28277 1.498034,-1.28277 0.481082,0 1.383087,-0.40961 1.563019,-0.70977 0.07065,-0.11781 0.243733,-0.16913 0.40151,-0.11906 0.15255,0.0484 0.32108,0.0173 0.374495,-0.0692 0.06744,-0.10908 0.187133,-0.10898 0.391436,3.6e-4 0.227895,0.12197 0.314349,0.10531 0.383089,-0.0738 0.0587,-0.15299 0.203084,-0.20266 0.426304,-0.14663 0.325953,0.0818 0.34082,0.0383 0.433585,-1.26861 0.08012,-1.12803 0.259081,-1.92483 0.510424,-2.27201 0.07899,-0.10909 1.096837,0.94008 1.096837,1.13058 0,0.0979 0.33985,0.53444 0.755224,0.96996 l 0.755239,0.79186 0.291776,-0.33643 c 0.2754,-0.31754 0.317532,-0.32356 0.750877,-0.10738 0.412599,0.20583 0.45911,0.20542 0.45911,-0.004 0,-0.19058 0.15201,-0.22041 0.834756,-0.1638 0.459119,0.0381 0.86977,0.0126 0.912559,-0.0567 0.04282,-0.0692 0.374781,-0.12588 0.737774,-0.12588 0.362985,0 0.694984,-0.0566 0.737765,-0.12587 0.04282,-0.0692 0.470385,-0.0957 0.950209,-0.0586 l 0.872414,0.0673 -0.671456,-0.69443 c -0.369303,-0.38196 -0.71904,-0.69445 -0.777196,-0.69445 -0.185305,0 -1.337658,-0.80154 -1.337658,-0.93043 0,-0.20199 0.262529,-0.14301 0.787067,0.17681 0.271222,0.16536 0.569942,0.3009 0.66383,0.30122 0.158353,5.2e-4 0.409856,-0.53265 0.372728,-0.79015 -0.0089,-0.0621 0.187975,-0.11295 0.437626,-0.11295 0.943319,0 3.01014,1.7013 3.01014,2.47779 0,0.2977 0.402407,0.67252 0.7303,0.68025 0.111731,0.002 0.416721,0.0961 0.677752,0.20755 0.700997,0.2995 1.517231,0.55029 1.790931,0.55029 0.635859,0 1.202248,0.54424 1.786368,1.71647 0.72755,1.46009 0.698665,1.97719 -0.142981,2.55962 -0.483737,0.33475 -0.703749,0.38019 -1.827442,0.37741 -1.02311,-0.002 -1.377417,-0.0649 -1.779319,-0.31332 -0.414748,-0.25633 -0.637319,-0.29196 -1.282889,-0.20534 -0.429591,0.0576 -1.102251,0.12533 -1.494794,0.15041 -0.392543,0.0251 -0.900851,0.16999 -1.12958,0.32199 -0.228728,0.152 -0.644615,0.39452 -0.924185,0.53893 -0.27957,0.14441 -0.605346,0.4011 -0.723941,0.57042 -0.118603,0.16933 -0.349473,0.30786 -0.513039,0.30786 -0.163581,0 -0.333915,0.0951 -0.378541,0.21141 -0.112524,0.29324 -2.282928,0.25434 -2.584077,-0.0463 z m 0.525307,-1.7622 c -0.05004,-0.0501 -0.179949,-0.0554 -0.288672,-0.0118 -0.120142,0.0481 -0.08446,0.0838 0.091,0.091 0.158762,0.006 0.247718,-0.0291 0.197671,-0.079 z m 45.475194,-7.08815 c -0.0551,-0.0553 -0.10043,-0.17043 -0.10043,-0.25603 0,-0.0944 0.0702,-0.0855 0.17823,0.0226 0.098,0.0981 0.14321,0.21324 0.10043,0.25605 -0.0428,0.0428 -0.12301,0.0326 -0.17823,-0.0226 z" /></g></svg>
